<?xml version="1.0" standalone="no"?>
<!DOCTYPE svg PUBLIC "-//W3C//DTD SVG 1.1//EN" "http://www.w3.org/Graphics/SVG/1.1/DTD/svg11.dtd" >
<svg xmlns="http://www.w3.org/2000/svg">
<metadata></metadata>
<defs>
<font id="fs_joeymedium" horiz-adv-x="1085" >
<font-face units-per-em="2048" ascent="1536" descent="-512" />
<missing-glyph horiz-adv-x="458" />
<glyph unicode="&#xfb01;" horiz-adv-x="1091" d="M33 877v63q0 19 5.5 25.5t24.5 9.5l119 22v72q0 179 101.5 256.5t304.5 77.5q144 0 254 -31q15 -4 20.5 -10t5.5 -16q0 -14 -10 -62l-8 -39q-5 -24 -27 -24q-9 0 -43 6q-108 20 -188 20q-123 0 -172 -40.5t-49 -147.5v-55h534q23 0 31 -8t8 -29v-930q0 -22 -9 -29.5 t-32 -7.5h-106q-22 0 -31.5 8t-9.5 29v805h-385v-805q0 -22 -9 -29.5t-32 -7.5h-107q-22 0 -31.5 8t-9.5 29v805h-114q-20 0 -27.5 7.5t-7.5 27.5z" />
<glyph unicode="&#xfb02;" horiz-adv-x="1175" d="M33 874v66q0 19 5.5 25.5t24.5 9.5l119 22v72q0 174 93.5 255t279.5 81q112 0 229 -31l123 12q24 2 32.5 -5.5t8.5 -28.5v-1082q0 -62 16.5 -86t67.5 -24h51q20 0 27.5 -7t7.5 -28v-88q0 -20 -7 -28.5t-26 -8.5h-88q-128 0 -182.5 55t-54.5 187v981q-68 26 -176 26 q-122 0 -167.5 -40.5t-45.5 -147.5v-57h204q20 0 27.5 -7t7.5 -26v-99q0 -16 -7 -23t-28 -7h-204v-805q0 -22 -9 -29.5t-32 -7.5h-107q-22 0 -31.5 8t-9.5 29v805h-116q-20 0 -26.5 7t-6.5 25z" />
<glyph horiz-adv-x="2048" />
<glyph horiz-adv-x="2048" />
<glyph unicode="&#xd;" horiz-adv-x="2048" />
<glyph unicode=" "  horiz-adv-x="458" />
<glyph unicode="&#x09;" horiz-adv-x="458" />
<glyph unicode="&#xa0;" horiz-adv-x="458" />
<glyph unicode="!" horiz-adv-x="442" d="M102 90v27q0 53 31.5 80.5t81.5 27.5h14q53 0 82 -27t29 -81v-27q0 -53 -29.5 -80.5t-81.5 -27.5h-14q-113 0 -113 108zM113 1286q-1 35 11 46t48 11h107q37 0 48 -12.5t9 -44.5l-27 -897q0 -30 -14.5 -40.5t-46.5 -10.5h-53q-32 0 -44.5 9.5t-13.5 39.5z" />
<glyph unicode="&#x22;" horiz-adv-x="780" d="M90 1397q-3 43 35 43h141q38 0 35 -43l-20 -451q0 -37 -35 -37h-103q-32 0 -32 37zM479 1397q-3 43 35 43h141q38 0 35 -43l-20 -451q0 -37 -35 -37h-103q-32 0 -32 37z" />
<glyph unicode="#" horiz-adv-x="1282" d="M41 399q0 9 14 70l8 35q6 29 18 38t42 9h176l47 211h-190q-33 0 -33 18q0 9 14 70l8 35q6 29 18 38t42 9h178l78 350q6 26 18 35.5t41 9.5h107q24 0 32.5 -5t8.5 -17q0 -14 -13 -68l-67 -305h221l78 350q6 26 18 35.5t41 9.5h107q24 0 32.5 -5t8.5 -17q0 -11 -13 -68 l-67 -305h194q33 0 33 -19q0 -8 -14 -69l-8 -35q-6 -29 -18 -38t-42 -9h-184l-47 -211h198q33 0 33 -19q0 -8 -14 -69l-8 -35q-6 -29 -18 -38t-42 -9h-184l-76 -336q-6 -26 -18 -35.5t-41 -9.5h-107q-24 0 -32.5 5t-8.5 18q0 9 13 63l65 295h-223l-74 -336q-6 -26 -18 -35.5 t-41 -9.5h-107q-24 0 -32.5 5t-8.5 18q0 6 13 63l65 295h-188q-33 0 -33 18zM502 551h223l47 211h-223z" />
<glyph unicode="$" d="M127 76q0 18 6 43l17 63q6 25 26 25q12 0 33 -8q136 -48 268 -56v465l-43 10q-164 39 -233.5 115.5t-69.5 227.5v32q0 324 361 348v158q0 17 7 23t23 6h62q17 0 23.5 -6t6.5 -23v-158q135 -5 248 -41q35 -11 35 -30q0 -10 -14 -64l-13 -45q-6 -28 -28 -28q-12 0 -27 6 q-101 32 -201 41v-422l41 -8q84 -20 137 -43.5t92.5 -64t56.5 -100.5t17 -149v-24q0 -192 -84.5 -281.5t-273.5 -101.5v-156q0 -17 -6.5 -23t-24.5 -6h-61q-31 0 -31 29v154q-179 6 -319 57q-31 12 -31 35zM322 969q0 -86 38 -123t132 -60v392q-89 -10 -129.5 -56 t-40.5 -133v-20zM600 147q95 10 133.5 58.5t38.5 150.5v21q0 97 -33 136t-139 67v-433z" />
<glyph unicode="%" horiz-adv-x="1687" d="M123 963v20q0 209 86 295q68 65 194 65q127 0 195 -65q86 -86 86 -295v-20q0 -209 -86 -293q-68 -68 -195 -68q-126 0 -194 68q-86 84 -86 293zM303 965q0 -125 22.5 -170t77.5 -45q56 0 78.5 45.5t22.5 169.5v16q0 124 -22.5 169.5t-78.5 45.5q-55 0 -77.5 -45 t-22.5 -170v-16zM377 2q0 13 22 53l711 1254q12 20 25.5 27t38.5 7h106q29 0 29 -20q0 -11 -23 -53l-711 -1254q-12 -20 -25 -27t-38 -7h-106q-29 0 -29 20zM1004 342v20q0 209 86 295q69 66 194 66q126 0 195 -66q86 -86 86 -295v-20q0 -209 -86 -293q-67 -67 -195 -67 q-127 0 -194 67q-86 84 -86 293zM1184 344q0 -125 22.5 -170t77.5 -45t77.5 45t22.5 170v16q0 125 -22.5 170t-77.5 45t-77.5 -45t-22.5 -170v-16z" />
<glyph unicode="&#x26;" horiz-adv-x="1243" d="M72 334v31q0 119 68 211.5t186 138.5q-77 65 -121.5 147t-44.5 156v16q0 140 98 224.5t268 84.5q168 0 263.5 -82.5t95.5 -216.5v-20q0 -227 -244 -371l274 -270q7 34 7 129v113q0 19 6.5 25.5t25.5 6.5h113q18 0 25.5 -7t7.5 -25v-121q0 -168 -43 -258l145 -142 q19 -19 19 -28q0 -12 -39 -51l-41 -41q-17 -17 -33 -17q-12 0 -33 21l-127 121q-127 -127 -375 -127h-59q-223 0 -332.5 91t-109.5 261zM276 342q0 -98 66.5 -150.5t192.5 -52.5h30q181 0 260 88l-397 389q-71 -39 -111.5 -106.5t-40.5 -151.5v-16zM358 1022 q0 -52 33.5 -105t106.5 -126l41 -41q72 48 112.5 117t40.5 147v10q0 83 -44 123.5t-122 40.5t-123 -39t-45 -115v-12z" />
<glyph unicode="'" horiz-adv-x="391" d="M90 1397q-3 43 35 43h141q38 0 35 -43l-20 -451q0 -37 -35 -37h-103q-32 0 -32 37z" />
<glyph unicode="(" horiz-adv-x="618" d="M115 578q0 216 68 409t225 389q21 27 41 27q14 0 45 -19l41 -24q30 -17 30 -37q0 -12 -33 -59q-215 -306 -215 -682q0 -196 52 -359.5t161 -326.5q33 -47 33 -60q0 -20 -31 -37l-40 -24q-31 -19 -46 -19q-19 0 -40 27q-291 371 -291 795z" />
<glyph unicode=")" horiz-adv-x="618" d="M53 1323q0 20 31 37l41 24q31 19 45 19q20 0 41 -27q157 -196 225 -389t68 -409q0 -424 -291 -795q-21 -27 -41 -27q-14 0 -45 19l-41 24q-31 17 -31 37q0 13 33 60q109 163 161 326.5t52 359.5q0 376 -215 682q-33 47 -33 59z" />
<glyph unicode="*" horiz-adv-x="753" d="M57 1217q0 3 15 49l20 61q6 21 25 21q10 0 24 -7l181 -88q-27 231 -27 232q0 13 6.5 18.5t24.5 5.5h102q18 0 24.5 -5.5t6.5 -18.5q0 -5 -3.5 -33t-10.5 -84.5t-13 -114.5l180 88q14 7 25 7q19 0 25 -21l20 -61q14 -43 14 -49q0 -13 -22 -19l-217 -55l164 -162 q18 -15 18 -35q0 -18 -18 -28l-58 -37q-37 -23 -51 -23q-16 0 -31 29l-104 194l-105 -194q-15 -29 -30 -29t-52 23l-57 37q-18 10 -18 28q0 20 18 35l164 162l-217 55q-23 6 -23 19z" />
<glyph unicode="+" d="M92 489v84q0 25 11 36.5t38 11.5h308v317q0 28 11 36.5t44 8.5h76q32 0 43.5 -8.5t11.5 -36.5v-317h307q27 0 38 -11.5t11 -36.5v-84q0 -26 -10.5 -36.5t-38.5 -10.5h-307v-317q0 -28 -11.5 -36.5t-43.5 -8.5h-76q-33 0 -44 8.5t-11 36.5v317h-308q-28 0 -38.5 10.5 t-10.5 36.5z" />
<glyph unicode="," horiz-adv-x="458" d="M88 -248q0 10 10 23q71 89 88 155q8 31 -12 43l-31 17q-23 12 -32 32.5t-9 59.5v49q0 98 111 98h31q62 0 90 -30t28 -97v-18q0 -89 -40 -190q-51 -122 -115 -189q-13 -16 -25 -16q-14 0 -32 12l-44 27q-18 12 -18 24z" />
<glyph unicode="-" horiz-adv-x="645" d="M72 483v92q0 26 10.5 36t36.5 10h407q26 0 36.5 -10t10.5 -36v-92q0 -23 -10.5 -32t-36.5 -9h-407q-26 0 -36.5 9t-10.5 32z" />
<glyph unicode="." horiz-adv-x="423" d="M92 90v33q0 53 30 80.5t79 27.5h22q109 0 109 -108v-33q0 -108 -109 -108h-22q-49 0 -79 27.5t-30 80.5z" />
<glyph unicode="/" horiz-adv-x="737" d="M51 -27q0 7 17 62l421 1329q9 26 22 34.5t40 8.5h92q43 0 43 -23q0 -9 -16 -61l-422 -1329q-9 -26 -22 -34.5t-40 -8.5h-92q-43 0 -43 22z" />
<glyph unicode="0" d="M84 635v55q0 195 28 322t91 202q109 129 340 129t340 -129q63 -75 90.5 -201.5t27.5 -322.5v-55q0 -196 -27.5 -322.5t-90.5 -201.5q-109 -129 -340 -129t-340 129q-63 75 -91 202t-28 322zM291 649q0 -89 1.5 -135t7.5 -112.5t22.5 -111.5t42.5 -77q56 -70 178 -70 t178 70q26 32 42.5 77t22.5 111.5t7.5 112.5t1.5 135v27q0 89 -1.5 135t-7.5 112.5t-22.5 111.5t-42.5 77q-56 70 -178 70t-178 -70q-26 -32 -42.5 -77t-22.5 -111.5t-7.5 -112.5t-1.5 -135v-27z" />
<glyph unicode="1" d="M164 1126q0 18 20 29l252 143q30 16 49 21.5t52 5.5h88q34 0 45.5 -9.5t11.5 -39.5v-1118h258q24 0 32.5 -7.5t8.5 -31.5v-84q0 -19 -9 -27t-32 -8h-733q-23 0 -32 8t-9 27v84q0 24 8.5 31.5t32.5 7.5h274v970h-12l-199 -112q-24 -12 -30 -12q-12 0 -27 24l-29 49 q-20 39 -20 49z" />
<glyph unicode="2" d="M135 53v121q0 186 63.5 299.5t207.5 177.5l151 68q113 51 149.5 103.5t36.5 152.5v14q0 109 -48.5 151t-155.5 42q-113 0 -289 -58q-18 -6 -27 -6q-18 0 -28 33l-15 49q-8 32 -8 41q0 22 21 31q78 32 176.5 51.5t185.5 19.5q196 0 294.5 -82.5t98.5 -263.5v-20 q0 -154 -65 -241.5t-211 -151.5l-148 -66q-112 -49 -155 -116t-43 -191v-53h561q24 0 33.5 -9.5t9.5 -33.5v-76q0 -22 -10 -30.5t-33 -8.5h-692q-35 0 -47.5 11t-12.5 42z" />
<glyph unicode="3" d="M106 59q0 4 13 58l12 47q6 24 25 24q11 0 32 -6q142 -43 285 -43q125 0 188.5 55t63.5 173v16q0 130 -69.5 181.5t-231.5 51.5h-72q-39 0 -39 37v88q0 35 41 35h49q293 0 293 221v17q0 172 -207 172q-117 0 -247 -51q-28 -11 -37 -11q-19 0 -27 29l-14 49q-10 38 -10 47 q0 20 22 29q64 27 158 46t180 19q116 0 199.5 -30t134.5 -102.5t51 -184.5v-20q0 -113 -48.5 -192t-150.5 -105v-2q108 -19 169 -101.5t61 -216.5v-24q0 -183 -110.5 -283t-334.5 -100q-186 0 -346 47q-20 6 -26.5 12t-6.5 18z" />
<glyph unicode="4" d="M55 371v45q0 30 45 104l465 758q17 28 33 37.5t47 9.5h154q37 0 51 -12.5t14 -46.5v-779h125q23 0 31 -8.5t8 -34.5v-77q0 -27 -7.5 -35t-31.5 -8h-125v-283q0 -22 -9.5 -31.5t-35.5 -9.5h-110q-26 0 -35.5 9.5t-9.5 31.5v283h-558q-28 0 -39.5 10t-11.5 37zM256 487h408 v639h-13z" />
<glyph unicode="5" d="M104 96q0 6 15 49l16 41q11 31 31 31q10 0 29 -8q65 -29 150.5 -49.5t154.5 -20.5q133 0 193.5 66.5t60.5 204.5v18q0 126 -53 189t-179 63q-114 0 -248 -62q-28 -12 -34 -12q-14 0 -35 12l-31 17q-20 11 -20 33q0 10 4 80l37 532q2 24 12.5 34.5t36.5 10.5h577 q25 0 34 -7.5t9 -29.5v-86q0 -22 -9 -29.5t-34 -7.5h-436q-15 0 -22.5 -5.5t-8.5 -20.5l-22 -346q103 49 246 49q190 0 285 -107t95 -301v-26q0 -116 -32.5 -199t-94.5 -132.5t-144.5 -72t-190.5 -22.5q-89 0 -189 22t-174 57q-29 15 -29 35z" />
<glyph unicode="6" d="M102 602v57q0 350 133.5 517t401.5 167q132 0 231 -36q23 -8 31 -18.5t2 -31.5l-20 -77q-6 -23 -16 -28.5t-36 1.5q-102 31 -194 31q-176 0 -251 -109t-75 -330q140 97 314 97q179 0 269.5 -102t90.5 -291v-29q0 -207 -113 -322.5t-319 -115.5q-243 0 -346 152.5 t-103 467.5zM305 578q-1 -233 58.5 -336t191.5 -103q227 0 227 275v18q0 128 -53 186t-158 58q-135 0 -266 -98z" />
<glyph unicode="7" d="M135 1204v78q0 24 9.5 33.5t33.5 9.5h778q24 0 32.5 -8.5t8.5 -30.5v-51q0 -9 -1 -17t-4.5 -19t-5.5 -17t-8.5 -20.5t-9 -20t-12 -24.5l-12.5 -25l-522 -1049q-12 -25 -28 -34t-48 -9h-115q-32 0 -32 23q0 13 24 59l553 1083h-598q-25 0 -34 8t-9 31z" />
<glyph unicode="8" d="M92 338v18q0 102 62 191.5t159 140.5q-94 58 -136 130t-42 173v17q0 150 113.5 242.5t306.5 92.5q188 0 293.5 -82.5t105.5 -238.5v-18q0 -100 -47 -184.5t-135 -139.5q219 -95 219 -309v-23q0 -174 -124 -270t-322 -96q-212 0 -332.5 94t-120.5 262zM299 350 q0 -99 68 -156t184 -57q113 0 173 54t60 155v8q0 74 -47 122t-170 97l-116 48q-152 -99 -152 -261v-10zM334 993q0 -71 43 -120.5t135 -86.5l119 -47q127 110 127 246v12q0 91 -56 141t-153 50t-156 -47.5t-59 -134.5v-13z" />
<glyph unicode="9" d="M102 881v34q0 193 116 310.5t319 117.5q245 0 345.5 -152.5t100.5 -477.5v-45q0 -193 -30.5 -324t-97.5 -211.5t-164.5 -115.5t-239.5 -35q-69 0 -140 9.5t-108 22.5q-27 9 -27 27q0 15 10 57l11 45q4 20 15 25.5t34 -0.5q103 -27 205 -27q99 0 164.5 29t100 89 t47.5 131.5t15 176.5q-47 -39 -128.5 -63.5t-162.5 -24.5q-190 0 -287.5 102t-97.5 300zM303 891q0 -248 213 -248q158 0 262 98q5 236 -49.5 340.5t-189.5 104.5q-116 0 -176 -68t-60 -200v-27z" />
<glyph unicode=":" horiz-adv-x="423" d="M92 90v33q0 53 30 80.5t79 27.5h22q109 0 109 -108v-33q0 -108 -109 -108h-22q-49 0 -79 27.5t-30 80.5zM92 870v33q0 54 30 81.5t79 27.5h22q109 0 109 -109v-33q0 -108 -109 -108h-22q-49 0 -79 27.5t-30 80.5z" />
<glyph unicode=";" horiz-adv-x="468" d="M92 -248q0 10 10 23q71 89 88 155q8 31 -12 43l-31 17q-23 12 -32 32.5t-9 59.5v49q0 98 111 98h31q62 0 90.5 -30t28.5 -97v-18q0 -87 -41 -190q-51 -122 -115 -189q-13 -16 -25 -16q-14 0 -32 12l-43 27q-19 13 -19 24zM113 870v33q0 54 29.5 81.5t78.5 27.5h23 q108 0 108 -109v-33q0 -108 -108 -108h-23q-49 0 -78.5 27t-29.5 81z" />
<glyph unicode="&#x3c;" d="M129 512v43q0 34 29 49l667 359q22 12 37 12q18 0 33 -27l29 -49q22 -37 22 -53q0 -20 -33 -37l-514 -277l514 -272q33 -17 33 -37q0 -16 -22 -53l-29 -49q-15 -27 -33 -27q-15 0 -37 12l-667 357q-29 15 -29 49z" />
<glyph unicode="=" d="M92 279v83q0 25 11 36.5t38 11.5h801q27 0 38 -11.5t11 -36.5v-83q0 -27 -10.5 -37.5t-38.5 -10.5h-801q-27 0 -38 10.5t-11 37.5zM92 700v84q0 25 11 36t38 11h801q27 0 38 -11t11 -36v-84q0 -26 -10.5 -36.5t-38.5 -10.5h-801q-28 0 -38.5 10.5t-10.5 36.5z" />
<glyph unicode="&#x3e;" d="M139 223q0 20 33 37l514 272l-514 277q-33 17 -33 37q0 14 23 53l28 49q15 27 33 27q15 0 37 -12l668 -359q28 -15 28 -49v-43q0 -34 -28 -49l-668 -357q-22 -12 -37 -12q-18 0 -33 27l-28 49q-23 39 -23 53z" />
<glyph unicode="?" horiz-adv-x="909" d="M68 1243q0 21 26 33q156 67 348 67q185 0 284 -80t99 -243v-12q0 -215 -219 -359l-55 -37q-78 -54 -108.5 -107.5t-30.5 -144.5v-6q0 -19 -7.5 -25.5t-29.5 -6.5h-86q-37 0 -37 32v13q0 144 35.5 213t132.5 135l59 41q81 56 113.5 113.5t32.5 131.5v13q0 85 -50 127.5 t-157 42.5q-68 0 -162 -23q-30 -7 -61 -17.5t-48.5 -16t-27.5 -5.5q-19 0 -27 27l-12 41q-12 40 -12 53zM213 100v17q0 53 31.5 80.5t81.5 27.5h14q113 0 113 -119q0 -63 -27.5 -93.5t-85.5 -30.5h-14q-60 0 -86.5 28.5t-26.5 89.5z" />
<glyph unicode="@" horiz-adv-x="1632" d="M92 582q0 186 59.5 339t165 255.5t251 158.5t317.5 56q191 0 338 -71t232 -212t85 -334q0 -231 -104.5 -362t-268.5 -131q-87 0 -149 28.5t-86 81.5h-4q-68 -84 -195 -84q-106 0 -165.5 56.5t-59.5 160.5q0 86 24 238q21 133 87.5 193.5t177.5 60.5q142 0 190 -92l14 43 q6 15 13 19.5t26 4.5h70q33 0 33 -20q0 -4 -1 -14.5t-3.5 -30t-3.5 -33.5l-33 -275q-2 -21 -6 -49t-6.5 -49t-2.5 -41q0 -80 93 -80q86 0 144 93.5t58 261.5q0 240 -138.5 365.5t-369.5 125.5q-127 0 -233.5 -42.5t-185.5 -123.5t-123.5 -205t-44.5 -280q0 -258 132.5 -384 t420.5 -126q80 0 188 16t172 37q50 13 51 13q17 0 23 -25l10 -41q8 -33 8 -43q0 -17 -22 -25q-90 -33 -216 -53t-243 -20q-353 0 -536 163.5t-183 475.5zM680 526q0 -96 96 -96q61 0 98 37t48 127l16 127q6 43 6 63q0 105 -115 105q-55 0 -82 -32t-42 -112 q-25 -131 -25 -219z" />
<glyph unicode="A" horiz-adv-x="1122" d="M31 25q0 16 14 63q176 640 365 1172q15 42 35.5 53.5t72.5 11.5h86q53 0 73.5 -11.5t35.5 -53.5q184 -519 364 -1172q15 -50 15 -63q0 -25 -41 -25h-99q-37 0 -49.5 7.5t-19.5 35.5q-48 191 -84 315h-475q-36 -124 -84 -315q-7 -28 -20 -35.5t-50 -7.5h-98q-41 0 -41 25z M371 528h381q-103 355 -185 598h-12q-75 -222 -184 -598z" />
<glyph unicode="B" horiz-adv-x="1097" d="M141 76v1173q0 37 12 51.5t46 20.5q123 22 270 22q463 0 463 -329v-23q0 -102 -45.5 -175.5t-128.5 -102.5v-2q120 -24 188 -101t68 -202v-23q0 -201 -134.5 -293t-394.5 -92q-175 0 -282 8q-35 3 -48.5 18t-13.5 50zM342 203q0 -35 37 -39q35 -2 119 -2 q152 0 230.5 49.5t78.5 169.5v20q0 114 -71 161.5t-234 47.5h-160v-407zM342 768h121q140 0 201 48t61 163v18q0 99 -57.5 142t-178.5 43q-88 0 -124 -8q-23 -6 -23 -31v-375z" />
<glyph unicode="C" horiz-adv-x="1060" d="M104 614v95q0 237 37.5 354t128.5 188q120 92 340 92q95 0 189 -25t166 -67q20 -11 20 -26q0 -16 -16 -49l-31 -62q-9 -18 -27 -18q-10 0 -26 8q-138 76 -273 76q-149 0 -217 -74q-46 -49 -65 -138t-19 -282v-47q0 -198 15 -280.5t59 -133.5q72 -80 252 -80q118 0 262 50 q24 8 33 8q18 0 24 -19l13 -39q14 -48 14 -65q0 -22 -25 -31q-74 -28 -170.5 -47.5t-179.5 -19.5q-273 0 -385 118q-69 74 -94 185t-25 329z" />
<glyph unicode="D" horiz-adv-x="1226" d="M141 63v1194q0 36 13.5 51.5t46.5 18.5q123 12 264 12q175 0 295.5 -31t203 -103.5t120.5 -191t38 -292.5v-109q0 -165 -33.5 -277.5t-110.5 -189t-202 -111t-309 -34.5q-186 0 -264 2q-34 2 -48 15.5t-14 45.5zM342 197q0 -20 8.5 -28.5t28.5 -8.5h115q118 0 194.5 21.5 t129 76.5t75 146.5t22.5 232.5v59q0 142 -22.5 234t-75.5 147.5t-132 78t-200 22.5q-66 0 -112 -4q-31 -3 -31 -35v-942z" />
<glyph unicode="E" horiz-adv-x="995" d="M115 627v80q0 282 12 395q12 129 72.5 176t197.5 47h471q25 0 33 -8.5t8 -32.5v-82q0 -23 -8 -32t-33 -9h-454q-44 0 -66.5 -18t-25.5 -58q-11 -147 -11 -321h475q25 0 33 -8t8 -31v-84q0 -22 -8 -30.5t-33 -8.5h-475q0 -246 15 -369q4 -39 24 -55t62 -16h454q27 0 35 -8 t8 -31v-84q0 -23 -8 -31t-35 -8h-471q-137 0 -194.5 48t-69.5 188q-16 184 -16 391z" />
<glyph unicode="F" horiz-adv-x="940" d="M139 41v1069q0 108 54 162q53 53 165 53h492q22 0 31.5 -8t9.5 -31v-86q0 -22 -9 -30.5t-32 -8.5h-424q-55 0 -70 -20q-16 -21 -16 -72v-311h463q24 0 32.5 -8.5t8.5 -32.5v-82q0 -23 -8.5 -32t-32.5 -9h-463v-553q0 -24 -9 -32.5t-34 -8.5h-115q-25 0 -34 8.5t-9 32.5z " />
<glyph unicode="G" horiz-adv-x="1181" d="M104 616v95q0 385 189 532q129 100 377 100q191 0 348 -65q24 -9 24 -29q0 -10 -14 -51l-18 -57q-7 -25 -30 -25q-11 0 -26 6q-148 58 -295 58q-129 0 -202.5 -43.5t-109.5 -150.5t-36 -298v-51q0 -194 32 -298.5t104.5 -149t205.5 -44.5q114 0 187 13q17 3 23.5 10.5 t6.5 26.5v366h-165q-25 0 -34 7t-9 30v90q0 23 9 31t34 8h327q21 0 30 -9t9 -30v-594q0 -30 -9.5 -44t-37.5 -21q-178 -47 -371 -47q-130 0 -222 22.5t-156 67.5t-101 122t-53.5 178t-16.5 244z" />
<glyph unicode="H" horiz-adv-x="1253" d="M141 43v1239q0 24 10 33.5t35 9.5h111q25 0 35 -9.5t10 -33.5v-522h569v522q0 24 10 33.5t35 9.5h111q25 0 35 -9.5t10 -33.5v-1239q0 -26 -9.5 -34.5t-35.5 -8.5h-113q-25 0 -34 8.5t-9 34.5v551h-569v-551q0 -26 -9.5 -34.5t-35.5 -8.5h-111q-26 0 -35.5 8.5t-9.5 34.5 z" />
<glyph unicode="I" horiz-adv-x="503" d="M152 43v1239q0 25 9 34t34 9h112q25 0 35 -9.5t10 -33.5v-1239q0 -26 -9.5 -34.5t-35.5 -8.5h-110q-26 0 -35.5 8.5t-9.5 34.5z" />
<glyph unicode="J" horiz-adv-x="694" d="M61 39v90q0 22 8 31.5t31 9.5h88q109 0 140 66q11 24 16 52.5t5.5 51t0.5 82.5v860q0 25 9 34t34 9h113q25 0 35 -9.5t10 -33.5v-870q0 -192 -57 -287q-77 -125 -291 -125h-101q-24 0 -32.5 8.5t-8.5 30.5z" />
<glyph unicode="K" d="M141 43v1239q0 24 10 33.5t35 9.5h111q25 0 35 -9.5t10 -33.5v-518h96q21 0 33 7t23 24l337 495q22 35 68 35h125q33 0 33 -18q0 -14 -15 -35l-378 -545q-17 -24 -17 -35q0 -13 17 -37l344 -553q5 -7 11.5 -17.5t10 -16t8 -12.5t7 -11.5t4.5 -9t3 -8.5t1 -7 q0 -20 -37 -20h-123q-25 0 -37.5 6.5t-24.5 26.5l-325 536q-10 18 -22 23.5t-38 5.5h-104v-555q0 -26 -9.5 -34.5t-35.5 -8.5h-111q-26 0 -35.5 8.5t-9.5 34.5z" />
<glyph unicode="L" horiz-adv-x="854" d="M141 184v1098q0 24 10 33.5t35 9.5h111q25 0 35 -9.5t10 -33.5v-1065q0 -31 12.5 -43t46.5 -12h359q26 0 34.5 -7.5t8.5 -29.5v-88q0 -21 -8.5 -29t-34.5 -8h-422q-105 0 -151 45t-46 139z" />
<glyph unicode="M" horiz-adv-x="1568" d="M115 29q0 11 1 35t1 30q25 710 53 1168q3 39 20.5 51t65.5 12h113q53 0 71.5 -10t32.5 -53q194 -580 305 -879h10q187 494 308 879q13 42 31.5 52.5t72.5 10.5h113q48 0 65.5 -12t20.5 -51q28 -458 53 -1168q0 -6 1 -28.5t1 -36.5q0 -18 -10 -23.5t-35 -5.5h-104 q-28 0 -38 7.5t-10 33.5q-12 732 -26 1040h-12q-21 -60 -70 -201.5t-79.5 -230.5t-73 -205.5t-74.5 -197.5q-16 -38 -36.5 -48t-62.5 -10h-80q-41 0 -61.5 10.5t-34.5 47.5q-104 264 -299 835h-12q-7 -150 -27 -1040q0 -26 -9.5 -33.5t-35.5 -7.5h-106q-24 0 -33.5 6 t-9.5 23z" />
<glyph unicode="N" horiz-adv-x="1273" d="M141 43v1225q0 34 13 45.5t49 11.5h108q40 0 59.5 -12.5t37.5 -44.5l530 -975h10v989q0 25 9 34t34 9h99q25 0 34 -9t9 -34v-1227q0 -33 -13 -44t-49 -11h-108q-39 0 -59 12t-38 43l-530 977h-10v-989q0 -26 -9 -34.5t-34 -8.5h-99q-25 0 -34 8.5t-9 34.5z" />
<glyph unicode="O" horiz-adv-x="1228" d="M104 614v95q0 206 27 316.5t100 191.5q55 60 153.5 93t229.5 33t229.5 -33t153.5 -93q73 -81 100 -191.5t27 -316.5v-95q0 -206 -27 -315t-100 -190q-55 -60 -153.5 -93.5t-229.5 -33.5t-229.5 33.5t-153.5 93.5q-73 81 -100 190t-27 315zM311 639q0 -175 13.5 -264.5 t60.5 -143.5q74 -86 229 -86q156 0 230 86q47 54 60.5 143.5t13.5 264.5v47q0 175 -13.5 264.5t-60.5 143.5q-74 86 -230 86q-155 0 -229 -86q-47 -54 -60.5 -143.5t-13.5 -264.5v-47z" />
<glyph unicode="P" horiz-adv-x="1040" d="M141 43v1217q0 34 12 48t44 19q125 16 301 16q261 0 377 -92t116 -309v-33q0 -220 -125 -320t-360 -100q-87 0 -164 3v-449q0 -26 -9 -34.5t-36 -8.5h-111q-27 0 -36 8.5t-9 34.5zM342 653q45 -2 129 -2q175 0 247.5 56t72.5 206v25q0 134 -65.5 189t-223.5 55 q-76 0 -129 -6q-31 -3 -31 -39v-484z" />
<glyph unicode="Q" horiz-adv-x="1228" d="M104 614v95q0 206 27 316.5t100 191.5q55 60 153.5 93t229.5 33t229.5 -33t153.5 -93q73 -81 100 -191.5t27 -316.5v-95q0 -206 -27 -315t-100 -190q-87 -93 -256 -117q36 -55 108 -116t155 -109q24 -15 24 -29t-20 -29l-74 -57q-20 -17 -39 -17q-11 0 -37 15 q-88 56 -169.5 147.5t-139.5 186.5q-222 15 -318 125q-73 81 -100 190t-27 315zM311 639q0 -175 13.5 -264.5t60.5 -143.5q74 -86 229 -86q156 0 230 86q47 54 60.5 143.5t13.5 264.5v47q0 175 -13.5 264.5t-60.5 143.5q-74 86 -230 86q-155 0 -229 -86 q-47 -54 -60.5 -143.5t-13.5 -264.5v-47z" />
<glyph unicode="R" horiz-adv-x="1101" d="M141 43v1225q0 49 41 55q133 20 314 20q249 0 367 -85t118 -289v-39q0 -148 -66.5 -242t-181.5 -121l289 -485q33 -53 33 -64q0 -18 -29 -18h-131q-24 0 -35.5 7t-21.5 24q-30 52 -91 158.5t-112 195.5t-90 160q-29 -2 -96 -2q-72 0 -107 2v-502q0 -26 -9.5 -34.5 t-35.5 -8.5h-111q-26 0 -35.5 8.5t-9.5 34.5zM342 707q102 -5 147 -5q164 0 227.5 50t63.5 184v27q0 124 -59 171.5t-215 47.5q-82 0 -135 -6q-29 -3 -29 -33v-436z" />
<glyph unicode="S" horiz-adv-x="997" d="M82 76q0 18 6 43l16 63q6 25 27 25q12 0 33 -8q159 -56 317 -56q139 0 191.5 47t52.5 166v21q0 102 -36.5 141t-160.5 68l-139 32q-164 39 -233.5 115.5t-69.5 227.5v32q0 350 420 350q184 0 311 -43q35 -11 35 -30q0 -10 -14 -64l-13 -45q-6 -28 -28 -28q-12 0 -27 6 q-133 43 -258 43q-124 0 -178.5 -45.5t-54.5 -147.5v-20q0 -91 41.5 -126.5t150.5 -60.5l139 -32q84 -20 137 -43.5t92.5 -64t56.5 -100.5t17 -149v-24q0 -211 -104 -299t-340 -88q-89 0 -187 16.5t-169 42.5q-31 12 -31 35z" />
<glyph unicode="T" horiz-adv-x="983" d="M33 1202v84q0 23 9.5 31t31.5 8h835q22 0 31.5 -8t9.5 -31v-84q0 -23 -8 -32t-33 -9h-317v-1120q0 -24 -9 -32.5t-34 -8.5h-115q-25 0 -34 8.5t-9 32.5v1120h-317q-25 0 -33 9t-8 32z" />
<glyph unicode="U" horiz-adv-x="1226" d="M131 438v844q0 24 9.5 33.5t33.5 9.5h115q24 0 33.5 -9.5t9.5 -33.5v-833q0 -166 59 -228q70 -76 221 -76q154 0 224 76q59 64 59 228v833q0 24 10 33.5t35 9.5h111q25 0 35 -9.5t10 -33.5v-844q0 -238 -117 -346q-119 -110 -367 -110q-128 0 -214.5 27t-149.5 83 q-117 105 -117 346z" />
<glyph unicode="V" horiz-adv-x="1103" d="M31 1298q0 27 37 27h112q27 0 39.5 -8t18.5 -33q120 -512 305 -1077h18q177 542 305 1077q6 25 18.5 33t39.5 8h106q43 0 43 -25q0 -10 -12 -57q-183 -662 -363 -1182q-12 -37 -31 -49t-63 -12h-106q-44 0 -62.5 12t-32.5 49q-205 583 -350 1139q-3 13 -8 31l-7.5 27 t-4.5 20t-2 20z" />
<glyph unicode="W" horiz-adv-x="1638" d="M31 1298q0 27 39 27h106q32 0 43 -7t17 -36q106 -640 210 -1081h17q92 374 215 997q7 35 24.5 46t59.5 11h115q42 0 59.5 -11t24.5 -46q123 -623 215 -997h16q107 456 211 1081q6 29 17 36t42 7h107q39 0 39 -27q0 -5 -19 -112q-100 -542 -248 -1129q-9 -35 -28.5 -46 t-65.5 -11h-117q-46 0 -65.5 10.5t-28.5 46.5q-121 484 -209 959h-16q-88 -475 -209 -959q-9 -36 -28.5 -46.5t-65.5 -10.5h-117q-46 0 -65.5 11t-28.5 46q-148 587 -248 1129q-18 101 -18 112z" />
<glyph unicode="X" horiz-adv-x="1110" d="M35 20q0 16 31 74l276 539q12 24 12 43q0 25 -12 47l-256 514q-29 57 -29 68q0 20 29 20h121q30 0 44 -8.5t25 -32.5l205 -440q23 -51 36 -65.5t36 -14.5h8q23 0 36 14.5t36 65.5l205 440q11 24 25 32.5t44 8.5h121q29 0 29 -20q0 -11 -29 -68l-256 -514q-12 -27 -12 -41 q0 -15 12 -39l272 -549q31 -58 31 -74q0 -20 -39 -20h-104q-33 0 -49.5 8t-26.5 31l-223 473q-26 53 -37.5 66.5t-34.5 13.5h-8q-23 0 -34.5 -13.5t-37.5 -66.5l-227 -473q-10 -23 -26.5 -31t-49.5 -8h-104q-39 0 -39 20z" />
<glyph unicode="Y" horiz-adv-x="978" d="M31 1300q0 15 9.5 20t33.5 5h98q44 0 53 -35q87 -336 258 -686h13q164 336 258 686q9 35 53 35h98q24 0 33.5 -5t9.5 -20q0 -14 -14 -61q-135 -435 -344 -809v-389q0 -25 -9.5 -33t-35.5 -8h-111q-26 0 -35.5 8t-9.5 33v389q-206 362 -344 809q-14 47 -14 61z" />
<glyph unicode="Z" horiz-adv-x="1017" d="M68 49v43q0 20 7 36.5t29 51.5l609 981h-570q-23 0 -32 8.5t-9 30.5v86q0 22 8.5 30.5t32.5 8.5h748q25 0 36 -9.5t11 -33.5v-53q0 -28 -8.5 -50.5t-36.5 -66.5l-596 -948h584q24 0 32.5 -8t8.5 -29v-90q0 -21 -8.5 -29t-32.5 -8h-758q-30 0 -42.5 11t-12.5 38z" />
<glyph unicode="[" horiz-adv-x="600" d="M143 -139v1478q0 22 9 30.5t32 8.5h334q24 0 31.5 -7t7.5 -30v-96q0 -21 -7.5 -27t-31.5 -6h-192v-1226h192q24 0 31.5 -7t7.5 -30v-96q0 -21 -7.5 -27t-31.5 -6h-334q-23 0 -32 9t-9 32z" />
<glyph unicode="\" horiz-adv-x="757" d="M61 1384q0 23 43 23h93q26 0 39 -8.5t22 -34.5l422 -1329q16 -52 16 -62q0 -22 -43 -22h-92q-26 0 -39 8.5t-22 34.5l-422 1329q-17 55 -17 61z" />
<glyph unicode="]" horiz-adv-x="600" d="M43 -51q0 23 7.5 30t31.5 7h192v1226h-192q-24 0 -31.5 6t-7.5 27v96q0 23 7.5 30t31.5 7h334q23 0 32 -8.5t9 -30.5v-1478q0 -23 -9 -32t-32 -9h-334q-24 0 -31.5 6t-7.5 27v96z" />
<glyph unicode="^" d="M117 709q0 10 12 28l301 451q16 22 29.5 27.5t44.5 5.5h78q31 0 43.5 -5.5t29.5 -27.5l301 -451q13 -20 13 -28q0 -15 -35 -43l-55 -41q-23 -17 -39 -17q-22 0 -43 35l-246 373h-16l-246 -373q-21 -35 -43 -35q-16 0 -39 17l-55 41q-35 28 -35 43z" />
<glyph unicode="_" horiz-adv-x="1040" d="M51 -66q0 23 8.5 31t34.5 8h852q26 0 34.5 -8t8.5 -31v-63q0 -26 -8 -32.5t-35 -6.5h-852q-27 0 -35 6.5t-8 32.5v63z" />
<glyph unicode="`" horiz-adv-x="690" d="M106 1333q0 11 19 43l43 72q12 22 29 22q12 0 30 -10l332 -194q25 -14 25 -27q0 -8 -13 -31l-30 -51q-13 -24 -29 -24q-12 0 -35 10l-340 157q-31 15 -31 33z" />
<glyph unicode="a" horiz-adv-x="974" d="M78 276v33q0 169 98 242q44 35 116.5 50t199.5 15h49q69 0 125 -6v86q0 96 -47 132t-156 36q-103 0 -223 -30q-37 -9 -43 -9q-21 0 -27 29l-8 39q-8 41 -8 53q0 23 28 31q137 45 297 45q199 0 287 -78.5t88 -269.5v-645q0 -15 -7.5 -22t-25.5 -7h-80q-33 0 -39 29l-8 59 h-4q-52 -106 -246 -106h-63q-303 0 -303 294zM268 279q0 -77 33 -110.5t111 -33.5h67q95 0 141 41.5t46 132.5v148q-49 6 -111 6h-90q-109 0 -153 -33.5t-44 -122.5v-28z" />
<glyph unicode="b" horiz-adv-x="1044" d="M127 338v1012q0 21 9 28.5t32 7.5h106q24 0 32.5 -7.5t8.5 -28.5v-416h4q37 40 103.5 64t152.5 24q200 0 291.5 -113.5t91.5 -363.5v-82q0 -262 -103 -371.5t-329 -109.5q-102 0 -173 16.5t-123.5 56.5t-77.5 110t-25 173zM315 354q0 -126 49 -171.5t168 -45.5 q66 0 106.5 12t71.5 47t43.5 101t12.5 172v66q0 184 -48.5 256.5t-178.5 72.5q-111 0 -167.5 -55t-56.5 -191v-264z" />
<glyph unicode="c" horiz-adv-x="876" d="M86 471v66q0 158 24.5 242t84.5 141q108 102 307 102q84 0 167 -24.5t138 -61.5q18 -12 18 -27q0 -10 -20 -49l-29 -53q-12 -21 -24 -21q-10 0 -25 9q-108 67 -219 67q-109 0 -164 -49q-20 -19 -33 -44.5t-19.5 -43.5t-9.5 -61.5t-3 -62v-81.5v-33q0 -120 10 -181.5 t41 -100.5q56 -68 186 -68q102 0 203 37q20 8 31 8q18 0 26 -24l12 -43q11 -37 11 -47q0 -23 -31 -35q-114 -51 -276 -51q-202 0 -293 88q-64 61 -88.5 158.5t-24.5 242.5z" />
<glyph unicode="d" horiz-adv-x="1044" d="M86 473v70q0 255 99.5 367t312.5 112q148 0 227 -76h4v404q0 21 9 28.5t32 7.5h107q24 0 32.5 -7.5t8.5 -28.5v-994q0 -191 -103 -282.5t-307 -91.5q-231 0 -326.5 113t-95.5 378zM279 479q0 -194 49.5 -268t179.5 -74q121 0 171 50t50 178v247q0 135 -53 194.5 t-170 59.5q-128 0 -177.5 -74t-49.5 -257v-56z" />
<glyph unicode="e" horiz-adv-x="952" d="M86 467v70q0 249 91.5 367t309.5 118q188 0 282.5 -98t94.5 -312v-147q0 -59 -57 -59h-528q2 -78 13 -125.5t38.5 -81.5t74.5 -48t123 -14q120 0 217 39q24 8 33 8q18 0 25 -22l14 -49q10 -33 10 -43q0 -19 -24 -31q-124 -57 -297 -57q-235 0 -327.5 111t-92.5 374z M276 559h379q15 0 21 6t6 23q0 152 -42 215t-157 63q-122 0 -164.5 -70.5t-42.5 -236.5z" />
<glyph unicode="f" horiz-adv-x="638" d="M33 874v66q0 17 6.5 24.5t23.5 10.5l119 22v72q0 170 72 248q82 88 258 88q102 0 180 -21q27 -8 27 -24q0 -18 -10 -76l-4 -24q-3 -19 -13.5 -23.5t-38.5 0.5q-65 10 -121 10q-76 0 -114 -30q-26 -20 -36.5 -56t-10.5 -100v-57h204q20 0 27.5 -7t7.5 -26v-99 q0 -16 -7 -23t-28 -7h-204v-805q0 -22 -9 -29.5t-32 -7.5h-107q-22 0 -31.5 8t-9.5 29v805h-119q-19 0 -24.5 6.5t-5.5 25.5z" />
<glyph unicode="g" horiz-adv-x="1001" d="M84 567v37q0 225 98 321.5t307 96.5q32 0 46 -2q60 168 260 168h59q20 0 27.5 -8t7.5 -29v-78q0 -20 -6 -26.5t-27 -6.5h-72q-44 0 -65.5 -8.5t-34.5 -32.5q111 -34 161 -125.5t50 -269.5v-37q0 -262 -131 -331q84 -45 127 -119t43 -164v-23q0 -155 -103.5 -234 t-306.5 -79q-105 0 -214 20.5t-189 53.5q-31 13 -31 33q0 5 10 43l21 59q5 18 20 18q5 0 29 -8q165 -65 340 -65q114 0 173.5 42t59.5 138v16q0 144 -127 199q-58 -10 -127 -10q-216 0 -310.5 98.5t-94.5 312.5zM276 567q0 -140 45 -202t168 -62q124 0 168.5 62t44.5 204v43 q0 140 -47 200t-166 60q-122 0 -167.5 -59.5t-45.5 -200.5v-45z" />
<glyph unicode="h" horiz-adv-x="1054" d="M131 37v1313q0 21 9 28.5t32 7.5h107q24 0 32 -7t8 -29v-414q89 86 271 86q169 0 256.5 -91t87.5 -306v-588q0 -22 -9 -29.5t-32 -7.5h-107q-22 0 -31.5 8t-9.5 29v588q0 135 -49 188t-168 53q-209 0 -209 -229v-600q0 -22 -8.5 -29.5t-31.5 -7.5h-107q-22 0 -31.5 8 t-9.5 29z" />
<glyph unicode="i" horiz-adv-x="479" d="M117 1253v15q0 60 33 89t86 29h10q54 0 85 -29t31 -89v-15q0 -60 -31 -89t-85 -29h-10q-53 0 -86 29t-33 89zM145 37v930q0 21 9.5 29t31.5 8h107q23 0 32 -7.5t9 -29.5v-930q0 -22 -9 -29.5t-32 -7.5h-107q-22 0 -31.5 8t-9.5 29z" />
<glyph unicode="j" horiz-adv-x="485" d="M-119 -233q0 32 31 32h47q120 0 156 56q23 35 29 78t6 120v914q0 21 9 29t31 8h107q23 0 32 -7.5t9 -29.5v-934q0 -197 -64 -285q-79 -113 -294 -113h-64q-35 0 -35 33v99zM121 1253v15q0 60 33 89t86 29h10q54 0 85.5 -29t31.5 -89v-15q0 -60 -31.5 -89t-85.5 -29h-10 q-53 0 -86 29t-33 89z" />
<glyph unicode="k" horiz-adv-x="907" d="M131 37v1313q0 21 9 28.5t32 7.5h107q24 0 32 -7t8 -29v-736h78q24 0 39 23l223 338q10 17 22.5 23t35.5 6h119q33 0 33 -18q0 -9 -9 -23l-285 -412q-8 -12 -8 -21q0 -11 8 -22l271 -428q33 -50 33 -62q0 -18 -29 -18h-121q-40 0 -59 31l-244 399q-13 19 -35 19h-72v-412 q0 -22 -8.5 -29.5t-31.5 -7.5h-107q-22 0 -31.5 8t-9.5 29z" />
<glyph unicode="l" horiz-adv-x="548" d="M133 242v1108q0 21 9 28.5t32 7.5h107q24 0 32.5 -7.5t8.5 -28.5v-1080q0 -62 16.5 -86t67.5 -24h51q20 0 27.5 -7t7.5 -28v-88q0 -20 -7 -28.5t-26 -8.5h-88q-128 0 -183 55.5t-55 186.5z" />
<glyph unicode="m" horiz-adv-x="1646" d="M131 37v934q0 19 7 26t26 7h74q19 0 26 -6t10 -23l11 -68h4q90 115 276 115q102 0 177.5 -35t117.5 -98h2q127 133 322 133q181 0 261.5 -93.5t80.5 -295.5v-596q0 -22 -9 -29.5t-32 -7.5h-107q-22 0 -31.5 8t-9.5 29v588q0 132 -44.5 186.5t-151.5 54.5 q-144 0 -223 -102q8 -60 8 -150v-577q0 -22 -9 -29.5t-32 -7.5h-107q-22 0 -31.5 8t-9.5 29v588q0 132 -49.5 186.5t-163.5 54.5q-102 0 -153.5 -49t-51.5 -164v-616q0 -22 -8.5 -29.5t-31.5 -7.5h-107q-22 0 -31.5 8t-9.5 29z" />
<glyph unicode="n" horiz-adv-x="1054" d="M131 37v936q0 18 7.5 24.5t25.5 6.5h72q19 0 27 -6.5t11 -24.5l11 -66h4q94 115 291 115q180 0 267 -94t87 -310v-581q0 -22 -9 -29.5t-32 -7.5h-107q-22 0 -31.5 8t-9.5 29v590q0 130 -49 185.5t-166 55.5q-106 0 -158.5 -48t-52.5 -165v-618q0 -22 -8.5 -29.5 t-31.5 -7.5h-107q-22 0 -31.5 8t-9.5 29z" />
<glyph unicode="o" horiz-adv-x="999" d="M86 467v70q0 141 23 233t79 148q104 104 312 104q207 0 311 -104q56 -56 79 -148t23 -233v-70q0 -141 -23 -233t-79 -148q-104 -104 -311 -104q-208 0 -312 104q-56 56 -79 148t-23 233zM279 481q0 -184 32 -252q44 -96 189 -96q144 0 188 96q33 70 33 252v1v1v1v1v1v1v1 v1v2v1v1v1v2v1v1v2v1v2v1v2v1v2v2v1v10q0 182 -33 252q-44 96 -188 96q-145 0 -189 -96q-32 -68 -32 -252v-1v-1v-1v-1v-1v-1v-1v-1v-1v-1v-1v-2v-1v-1v-2v-1v-2v-1v-2v-2v-1v-2v-2v-1v-10z" />
<glyph unicode="p" horiz-adv-x="1050" d="M131 -326v1295q0 19 7.5 27t25.5 8h72q19 0 26 -6t10 -23l13 -66h4q95 113 299 113q131 0 211.5 -42.5t123 -146t42.5 -278.5v-92q0 -247 -88 -364t-304 -117q-170 0 -251 81h-3v-389q0 -22 -8 -29t-32 -7h-107q-23 0 -32 7.5t-9 28.5zM319 358q0 -117 56.5 -169 t171.5 -52q130 0 177.5 72.5t47.5 259.5v68q0 186 -47 256.5t-180 70.5q-125 0 -175.5 -53.5t-50.5 -173.5v-279z" />
<glyph unicode="q" horiz-adv-x="1048" d="M86 455v84q0 261 94 372t307 111q190 0 273 -113h4l12 66q3 17 11.5 23t29.5 6h64q21 0 30 -8t9 -29v-1293q0 -21 -8.5 -28.5t-32.5 -7.5h-107q-23 0 -32 7.5t-9 28.5v398h-2q-76 -90 -248 -90q-208 0 -301.5 111t-93.5 362zM279 465q0 -133 22.5 -204t69.5 -97.5 t135 -26.5q225 0 225 225v271q0 118 -54.5 174.5t-170.5 56.5q-132 0 -179.5 -70.5t-47.5 -271.5v-57z" />
<glyph unicode="r" horiz-adv-x="663" d="M131 37v936q0 18 7.5 24.5t25.5 6.5h72q20 0 28.5 -6.5t9.5 -24.5l11 -101h4q41 69 99 100.5t155 31.5h41q25 0 34 -7.5t9 -29.5v-90q0 -19 -9.5 -27t-33.5 -8h-45q-71 0 -109.5 -13.5t-64.5 -44.5q-46 -54 -46 -178v-569q0 -22 -8.5 -29.5t-31.5 -7.5h-107 q-22 0 -31.5 8t-9.5 29z" />
<glyph unicode="s" horiz-adv-x="854" d="M82 61q0 13 12 62l10 37q7 28 27 28q7 0 15.5 -2.5t25 -8.5t33.5 -11q95 -29 209 -29q97 0 141.5 34.5t44.5 107.5v10q0 68 -33 97.5t-112 45.5l-97 21q-155 33 -207.5 90t-52.5 186v14q0 142 84.5 210.5t259.5 68.5q141 0 260 -35q25 -7 25 -26q0 -2 -12 -60l-10 -39 q-4 -17 -9 -22.5t-16 -5.5q-13 0 -41 8q-83 22 -184 22q-102 0 -141.5 -27.5t-39.5 -93.5v-10q0 -54 32 -80.5t122 -46.5l94 -20q139 -30 196.5 -93.5t57.5 -195.5v-16q0 -147 -92.5 -223t-273.5 -76q-161 0 -299 51q-29 10 -29 28z" />
<glyph unicode="t" horiz-adv-x="692" d="M23 872v66q0 19 5 25.5t21 9.5l127 24v224q0 21 9.5 30t31.5 9h109q22 0 30.5 -8.5t8.5 -30.5v-217h221q18 0 25 -8t7 -29v-88q0 -20 -7 -28.5t-25 -8.5h-221v-504q0 -61 4.5 -88.5t19.5 -50.5q17 -24 43.5 -31.5t85.5 -7.5h88q21 0 29 -7.5t8 -31.5v-84q0 -21 -7.5 -29 t-29.5 -8h-123q-177 0 -245 74q-34 38 -48 96t-14 154v518h-123q-18 0 -24 6t-6 24z" />
<glyph unicode="u" horiz-adv-x="1021" d="M121 301v666q0 21 9.5 29t31.5 8h106q23 0 32 -7.5t9 -29.5v-635q0 -113 47 -152q49 -41 156 -41t158 45q24 21 33.5 55t9.5 93v635q0 21 9.5 29t31.5 8h106q24 0 32.5 -8t8.5 -31v-664q0 -174 -104 -250q-47 -37 -114 -53t-171 -16t-170.5 16t-116.5 53 q-104 76 -104 250z" />
<glyph unicode="v" horiz-adv-x="917" d="M31 981q0 23 30 23h113q21 0 31 -7.5t14 -27.5q102 -403 234 -789h14q133 387 231 789q4 20 14 27.5t31 7.5h113q31 0 31 -23q0 -9 -13 -61q-126 -486 -272 -854q-15 -38 -34 -52t-54 -14h-111q-35 0 -54 14t-34 52q-146 368 -272 854q-12 48 -12 61z" />
<glyph unicode="w" horiz-adv-x="1374" d="M31 979q0 25 43 25h98q24 0 34 -7.5t13 -27.5q70 -409 164 -789h8q81 313 164 715q6 34 23 46.5t55 12.5h110q37 0 54 -12.5t24 -46.5q76 -380 162 -715h8q94 380 164 789q3 20 13 27.5t34 7.5h98q43 0 43 -25q0 -19 -10 -64q-100 -494 -203 -847q-11 -37 -29 -52.5 t-54 -15.5h-103q-37 0 -57.5 15t-30.5 53q-103 374 -162 684h-12q-47 -244 -162 -684q-10 -38 -31 -53t-59 -15h-100q-36 0 -55.5 16t-30.5 52q-103 353 -203 847q-10 45 -10 64z" />
<glyph unicode="x" horiz-adv-x="919" d="M31 18q0 6 4 16.5t14 29t14 26.5l187 363q24 49 24 63q0 13 -22 55l-182 349q-27 52 -27 61q0 23 29 23h110q26 0 37 -5.5t21 -25.5l168 -342q9 -19 17.5 -25t27.5 -6h14q19 0 27 5.5t18 25.5l168 342q10 20 21 25.5t36 5.5h111q29 0 29 -23q0 -9 -27 -61l-182 -349 q-23 -44 -23 -55t25 -63l186 -363q4 -9 14 -27t14.5 -28.5t4.5 -16.5q0 -18 -29 -18h-106q-36 0 -47.5 5.5t-22.5 27.5l-172 368q-9 20 -17.5 25.5t-27.5 5.5h-14q-19 0 -27.5 -5.5t-17.5 -25.5l-172 -368q-10 -22 -22.5 -27.5t-47.5 -5.5h-107q-28 0 -28 18z" />
<glyph unicode="y" horiz-adv-x="899" d="M35 979q0 25 33 25h116q36 0 41 -31q84 -425 174 -690q21 -62 33 -83.5t29 -21.5h8q135 401 209 795q6 31 41 31h121q28 0 28 -21q0 -13 -14 -76q-75 -326 -167 -607.5t-255 -655.5q-13 -31 -29 -31t-55 16l-55 23q-33 11 -33 29q0 8 25 59q63 127 118 264 q-92 18 -141 148q-117 303 -213 737q-14 72 -14 90z" />
<glyph unicode="z" horiz-adv-x="831" d="M55 37v41q0 38 41 100l428 666h-411q-21 0 -28 7.5t-7 27.5v88q0 22 6.5 29.5t28.5 7.5h618q19 0 26 -7t7 -26v-41q0 -25 -10 -47t-43 -72l-424 -651h448q20 0 27.5 -8t7.5 -29v-88q0 -19 -7.5 -27t-27.5 -8h-635q-25 0 -35 8t-10 29z" />
<glyph unicode="{" horiz-adv-x="671" d="M102 563v72q0 25 6.5 32t32.5 13q69 20 101 54.5t32 103.5v327q0 125 52.5 180.5t160.5 55.5h101q23 0 31 -7.5t8 -29.5v-90q0 -22 -8.5 -30.5t-28.5 -8.5h-53q-49 0 -64.5 -24.5t-15.5 -110.5v-248q0 -96 -35 -156t-109 -94v-6q77 -39 110.5 -97t33.5 -161v-246 q0 -86 15.5 -110.5t64.5 -24.5h53q20 0 28.5 -8.5t8.5 -30.5v-90q0 -22 -8 -29.5t-31 -7.5h-101q-108 0 -160.5 55.5t-52.5 180.5v321q0 75 -32.5 110.5t-104.5 61.5q-24 8 -29.5 14t-5.5 29z" />
<glyph unicode="|" horiz-adv-x="471" d="M143 8v1350q0 29 11.5 40t42.5 11h77q31 0 42.5 -11t11.5 -40v-1350q0 -30 -12 -40.5t-44 -10.5h-73q-32 0 -44 10.5t-12 40.5z" />
<glyph unicode="}" horiz-adv-x="671" d="M45 -82q0 22 8.5 30.5t28.5 8.5h53q49 0 64.5 24.5t15.5 110.5v246q0 104 33 161.5t110 96.5v6q-74 34 -108.5 94t-34.5 156v248q0 86 -15.5 110.5t-64.5 24.5h-53q-20 0 -28.5 8.5t-8.5 30.5v90q0 22 8 29.5t31 7.5h100q108 0 160.5 -55.5t52.5 -180.5v-327 q0 -69 32 -103.5t101 -54.5q26 -6 32.5 -13t6.5 -32v-72q0 -23 -5 -29t-29 -14q-73 -26 -105.5 -62t-32.5 -110v-321q0 -125 -52.5 -180.5t-160.5 -55.5h-100q-23 0 -31 7.5t-8 29.5v90z" />
<glyph unicode="~" d="M70 578q0 18 26 57q62 91 129 132.5t148 41.5q54 0 104 -21.5t82.5 -47t77 -47t88.5 -21.5q70 0 135 112q13 23 29 23q13 0 33 -10l69 -35q25 -11 25 -31q0 -15 -8 -31q-114 -208 -275 -208q-60 0 -116 21.5t-91 47t-77 47t-78 21.5q-69 0 -152 -113q-14 -20 -31 -20 q-12 0 -30 10l-45 29q-43 25 -43 43z" />
<glyph unicode="&#xa1;" horiz-adv-x="442" d="M102 887v26q0 109 113 109h14q52 0 81.5 -28t29.5 -81v-26q0 -54 -29.5 -81.5t-81.5 -27.5h-14q-50 0 -81.5 28t-31.5 81zM113 -283l24 899q1 30 13.5 40t44.5 10h53q32 0 46.5 -11t14.5 -41l27 -897q2 -32 -9 -44.5t-48 -12.5h-107q-36 0 -48 11t-11 46z" />
<glyph unicode="&#xa2;" d="M174 471v66q0 158 24.5 242t84.5 141q90 88 256 100v166q0 16 7 22t23 6h62q18 0 24.5 -5.5t6.5 -22.5v-170q139 -18 233 -82q18 -12 18 -27q0 -10 -20 -49l-29 -53q-12 -21 -24 -21q-10 0 -25 9q-76 47 -153 63v-717q75 8 145 35q20 8 31 8q18 0 26 -24l13 -43 q10 -34 10 -47q0 -23 -31 -35q-71 -33 -194 -47v-181q0 -17 -6.5 -22.5t-24.5 -5.5h-62q-16 0 -23 6t-7 22v179q-176 10 -252 86q-64 61 -88.5 158.5t-24.5 242.5zM367 487q0 -120 10 -181.5t41 -100.5q40 -49 121 -64v717q-69 -10 -107 -45q-20 -19 -33 -44.5t-19.5 -43.5 t-9.5 -61.5t-3 -62v-81.5v-33z" />
<glyph unicode="&#xa3;" d="M111 43v51q0 22 8.5 34t34.5 30q135 90 135 305v135h-105q-24 0 -32.5 6.5t-8.5 28.5v55q0 23 7.5 31.5t31.5 13.5l107 19v180q0 212 96 311q100 100 309 100q154 0 256 -38q31 -11 31 -31q0 -13 -12 -53l-13 -41q-6 -19 -10.5 -25t-13.5 -6q-8 0 -29 6q-107 29 -207 29 q-113 0 -157 -47q-28 -28 -39 -75t-11 -130v-178h342q24 0 31.5 -7.5t7.5 -31.5v-82q0 -20 -8 -27.5t-31 -7.5h-342v-90q0 -126 -24.5 -206.5t-95.5 -139.5v-2h569q28 0 36.5 -7t8.5 -32v-82q0 -21 -9.5 -30t-33.5 -9h-782q-30 0 -38.5 8t-8.5 35z" />
<glyph unicode="&#xa4;" d="M55 223q0 12 35 47l119 117q-55 90 -55 201q0 110 55 200l-119 117q-35 35 -35 47q0 14 15 29l73 74q16 16 29 16q15 0 29 -14l139 -137q78 59 203 59q124 0 202 -59l140 137q14 14 28 14q13 0 29 -16l74 -74q14 -14 14 -29q0 -12 -35 -47l-118 -117q55 -90 55 -200 q0 -111 -55 -201l118 -117q35 -35 35 -47q0 -14 -14 -28l-74 -74q-17 -17 -29 -17q-13 0 -28 15l-140 137q-78 -59 -202 -59q-125 0 -203 59l-139 -137q-15 -15 -29 -15q-12 0 -29 17l-73 74q-15 15 -15 28zM334 588q0 -92 60.5 -151.5t148.5 -59.5t148.5 59.5t60.5 151.5 t-60.5 151.5t-148.5 59.5t-148.5 -59.5t-60.5 -151.5z" />
<glyph unicode="&#xa5;" d="M82 1286q-12 39 37 39h114q26 0 37 -7t17 -30q100 -348 250 -665h14q137 289 250 665q7 26 21 31.5t55 5.5h92q47 0 35 -39q-122 -380 -283 -684h162q24 0 29.5 -7.5t5.5 -31.5v-71q0 -15 -1.5 -21.5t-9 -11t-24.5 -4.5h-240v-111h240q24 0 29.5 -7.5t5.5 -31.5v-72 q0 -15 -1.5 -21t-9 -10.5t-24.5 -4.5h-240v-156q0 -25 -9.5 -33t-35.5 -8h-111q-26 0 -35.5 8t-9.5 33v156h-239q-24 0 -29.5 7.5t-5.5 28.5v72q0 13 0.5 18.5t4 11.5t10.5 7.5t20 1.5h239v111h-239q-24 0 -29.5 7.5t-5.5 29.5v71q0 13 0.5 18.5t4 11.5t10.5 7.5t20 1.5h162 q-168 322 -283 684z" />
<glyph unicode="&#xa6;" horiz-adv-x="471" d="M143 8v459q0 29 11.5 40t42.5 11h77q31 0 42.5 -11t11.5 -40v-459q0 -30 -12 -40.5t-44 -10.5h-73q-32 0 -44 10.5t-12 40.5zM143 899v459q0 29 11.5 40t42.5 11h77q31 0 42.5 -11t11.5 -40v-459q0 -30 -12 -40.5t-44 -10.5h-73q-32 0 -44 10.5t-12 40.5z" />
<glyph unicode="&#xa7;" horiz-adv-x="892" d="M111 61q0 10 8 41l14 60q6 28 27 28q8 0 20 -4q129 -47 236 -47q103 0 142.5 27t39.5 86v12q0 48 -31.5 74.5t-99.5 40.5l-117 24q-128 27 -183.5 83t-55.5 163v10q0 65 33.5 114t82.5 71q-114 53 -114 213v18q0 126 90.5 189t261.5 63q116 0 235 -35q23 -8 23 -22 q0 -11 -8 -43l-15 -60q-6 -26 -22 -26q-11 0 -39 8q-88 25 -176 25q-78 0 -121 -21q-45 -23 -45 -84v-12q0 -44 28.5 -67.5t92.5 -35.5l123 -24q130 -26 186.5 -77t56.5 -155v-8q0 -136 -116 -205q114 -59 114 -213v-18q0 -129 -86 -199q-90 -73 -280 -73q-152 0 -275 49 q-19 7 -24.5 13t-5.5 17zM295 670q0 -47 25 -72.5t88 -38.5l114 -24q74 48 74 133q0 46 -24.5 70t-96.5 38l-102 21q-78 -33 -78 -127z" />
<glyph unicode="&#xa8;" horiz-adv-x="724" d="M86 1286v33q0 47 26 72.5t72 25.5h21q100 0 100 -98v-33q0 -98 -100 -98h-21q-46 0 -72 25.5t-26 72.5zM420 1286v33q0 47 26 72.5t72 25.5h21q100 0 100 -98v-33q0 -98 -100 -98h-21q-46 0 -72 25.5t-26 72.5z" />
<glyph unicode="&#xa9;" horiz-adv-x="1687" d="M92 713q0 163 53.5 300.5t150.5 234.5t238 151.5t310 54.5q339 0 545 -205.5t206 -535.5q0 -218 -92 -386.5t-263.5 -263t-395.5 -94.5q-225 0 -396.5 94.5t-263.5 263t-92 386.5zM285 711q0 -257 149 -413.5t410 -156.5t410 156.5t149 413.5q0 259 -148.5 415 t-410.5 156t-410.5 -156t-148.5 -415zM535 678v65q0 187 71 278t246 91q126 0 229 -57q17 -10 17 -27q0 -11 -17 -45l-18 -37q-10 -20 -27 -20q-5 0 -10.5 2t-16 7.5t-18.5 8.5q-60 29 -121 29q-87 0 -122 -50.5t-35 -179.5v-47q0 -50 2.5 -82.5t12 -66t26.5 -52t47 -30.5 t73 -12q78 0 142 28q12 6 22 6q17 0 25 -28l12 -37q10 -30 10 -41q0 -14 -18 -23q-86 -47 -209 -47q-179 0 -251 91.5t-72 275.5z" />
<glyph unicode="&#xaa;" horiz-adv-x="630" d="M53 774v23q0 101 58 145.5t188 44.5h49q30 0 70 -4v37q0 53 -25 71.5t-98 18.5q-61 0 -133 -16q-3 -1 -10.5 -2.5t-13 -3t-9.5 -1.5q-8 0 -11.5 6t-6.5 25l-7 35q-4 20 -4 29q0 14 21 22q92 29 192 29q133 0 189.5 -47.5t56.5 -167.5v-395q0 -21 -20 -21h-78 q-22 0 -25 21l-6 34q-44 -65 -137 -65h-47q-102 0 -147.5 46t-45.5 136zM193 778q0 -42 17.5 -59t59.5 -17h37q111 0 111 111v55q-32 4 -60 4h-63q-61 0 -81.5 -18t-20.5 -61v-15z" />
<glyph unicode="&#xab;" horiz-adv-x="1112" d="M76 467v16q0 42 28 64l297 246q33 26 52 26q15 0 34 -16l33 -31q31 -29 31 -49q0 -17 -23 -37l-225 -211l225 -209q23 -20 23 -37q0 -20 -31 -49l-33 -30q-20 -17 -34 -17q-18 0 -52 27l-297 243q-28 22 -28 64zM565 467v16q0 41 29 64l297 246q33 26 51 26q16 0 35 -16 l33 -31q30 -28 30 -49q0 -18 -22 -37l-225 -211l225 -209q22 -19 22 -37q0 -21 -30 -49l-33 -30q-20 -17 -35 -17q-17 0 -51 27l-297 243q-29 23 -29 64z" />
<glyph unicode="&#xac;" d="M92 489v84q0 25 11 36.5t38 11.5h801q27 0 38 -11.5t11 -36.5v-446q0 -26 -9.5 -35.5t-37.5 -9.5h-94q-28 0 -37.5 9.5t-9.5 35.5v315h-662q-28 0 -38.5 10.5t-10.5 36.5z" />
<glyph unicode="&#xad;" horiz-adv-x="645" d="M72 483v92q0 26 10.5 36t36.5 10h407q26 0 36.5 -10t10.5 -36v-92q0 -23 -10.5 -32t-36.5 -9h-407q-26 0 -36.5 9t-10.5 32z" />
<glyph unicode="&#xae;" horiz-adv-x="1687" d="M92 713q0 163 53.5 300.5t150.5 234.5t238 151.5t310 54.5q339 0 545 -205.5t206 -535.5q0 -218 -92 -386.5t-263.5 -263t-395.5 -94.5q-225 0 -396.5 94.5t-263.5 263t-92 386.5zM285 711q0 -257 149 -413.5t410 -156.5t410 156.5t149 413.5q0 259 -148.5 415 t-410.5 156t-410.5 -156t-148.5 -415zM588 356v695q0 26 10 38t33 17q66 12 194 12q303 0 303 -239v-21q0 -180 -157 -225l137 -230q31 -53 31 -63q0 -18 -29 -18h-102q-36 0 -50 30l-141 262q-43 0 -63 2v-260q0 -19 -9.5 -26.5t-33.5 -7.5h-82q-23 0 -32 7.5t-9 26.5z M754 748q50 -5 75 -5q68 0 100 26.5t32 92.5v10q0 59 -29.5 85t-95.5 26q-28 0 -68 -4q-14 -2 -14 -23v-208z" />
<glyph unicode="&#xaf;" horiz-adv-x="720" d="M94 1249v78q0 35 39 35h455q39 0 39 -35v-78q0 -20 -8.5 -28.5t-30.5 -8.5h-455q-22 0 -30.5 8.5t-8.5 28.5z" />
<glyph unicode="&#xb0;" horiz-adv-x="704" d="M78 1229q0 115 79 194.5t195 79.5t195.5 -79.5t79.5 -194.5t-79.5 -195t-195.5 -80q-115 0 -194.5 79.5t-79.5 195.5zM244 1229q0 -53 29 -86t79 -33t79.5 33t29.5 86t-29.5 86t-79.5 33t-79 -33t-29 -86z" />
<glyph unicode="&#xb1;" d="M92 47v84q0 25 11 36t38 11h801q27 0 38 -11t11 -36v-84q0 -26 -10.5 -36.5t-38.5 -10.5h-801q-28 0 -38.5 10.5t-10.5 36.5zM92 735v84q0 25 11 36t38 11h308v297q0 29 10 37t43 8h78q32 0 43.5 -8.5t11.5 -36.5v-297h307q27 0 38 -11t11 -36v-84q0 -26 -10.5 -36.5 t-38.5 -10.5h-307v-297q0 -28 -11.5 -36.5t-43.5 -8.5h-78q-33 0 -43 8t-10 37v297h-308q-28 0 -38.5 10.5t-10.5 36.5z" />
<glyph unicode="&#xb2;" horiz-adv-x="747" d="M121 936v53q0 107 34 173.5t113 105.5l97 47q54 27 74 49.5t20 58.5v7q0 40 -26 56.5t-79 16.5q-66 0 -143 -22q-15 -6 -25 -6q-9 0 -12.5 7t-9.5 34l-8 34q-6 24 -6 39q0 19 24 27q97 33 209 33q115 0 177.5 -53.5t62.5 -151.5v-12q0 -81 -33.5 -131.5t-118.5 -92.5 l-100 -49q-50 -25 -67 -49t-17 -61v-15h291q20 0 27 -7t7 -28v-69q0 -19 -7 -27t-27 -8h-414q-25 0 -34 8.5t-9 32.5z" />
<glyph unicode="&#xb3;" horiz-adv-x="747" d="M117 932q0 18 6 45l8 43q5 24 25 24q6 0 18 -4q84 -26 162 -26q119 0 119 86v10q0 54 -27 72t-113 18h-43q-17 0 -23.5 7t-6.5 26v72q0 17 6.5 23.5t23.5 6.5h41q80 0 106.5 20t26.5 68v11q0 69 -98 69q-60 0 -135 -22q-12 -4 -20 -4q-9 0 -13.5 5.5t-9.5 20.5l-10 41 q-8 32 -8 41q0 14 20 23q92 37 211 37q108 0 167.5 -47t59.5 -142v-16q0 -127 -96 -166v-6q109 -27 109 -156v-12q0 -109 -68 -166t-201 -57q-116 0 -209 28q-28 8 -28 27z" />
<glyph unicode="&#xb4;" horiz-adv-x="690" d="M106 1239q0 13 25 27l332 194q17 10 31 10q16 0 28 -22l43 -72q19 -32 19 -43q0 -18 -31 -33l-340 -157q-23 -10 -35 -10q-15 0 -28 24l-31 51q-13 23 -13 31z" />
<glyph unicode="&#xb6;" horiz-adv-x="1224" d="M84 1014q0 162 111 269.5t301 107.5h606q23 0 30 -7t7 -28v-94q0 -19 -7.5 -26t-29.5 -7h-119v-1419q0 -26 -7.5 -32.5t-35.5 -6.5h-96q-27 0 -35 6.5t-8 32.5v1419h-170v-1419q0 -26 -7.5 -32.5t-35.5 -6.5h-111q-27 0 -35 6.5t-8 32.5v831q-152 9 -251 113t-99 260z " />
<glyph unicode="&#xb7;" horiz-adv-x="423" d="M92 578v32q0 54 30 81.5t79 27.5h22q109 0 109 -109v-32q0 -109 -109 -109h-22q-49 0 -79 27.5t-30 81.5z" />
<glyph unicode="&#xb8;" horiz-adv-x="651" d="M117 -438q0 13 4 37l6 39q3 20 16 20q7 0 23 -4q58 -16 113 -16t78.5 15t23.5 56q0 30 -15.5 44t-52.5 14q-29 0 -69 -7q-20 -4 -23 -4q-11 0 -20 15l-17 26q-6 12 -6 23q0 9 6 39l23 127q5 16 22 16h84q19 0 19 -12q0 -11 -4 -31l-15 -86q30 6 66 6q66 0 109.5 -41 t43.5 -123q0 -196 -239 -196q-77 0 -156 22q-20 6 -20 21z" />
<glyph unicode="&#xb9;" horiz-adv-x="747" d="M92 1483q0 11 14 22l152 99q28 19 41.5 22.5t48.5 3.5h70q28 0 40.5 -10.5t12.5 -36.5v-549h137q22 0 30.5 -8t8.5 -27v-69q0 -21 -8.5 -28t-30.5 -7h-442q-22 0 -30.5 7t-8.5 28v69q0 19 8.5 27t30.5 8h145v430h-8l-115 -75q-15 -11 -22 -11q-12 0 -25 19l-32 51 q-17 24 -17 35z" />
<glyph unicode="&#xba;" horiz-adv-x="673" d="M72 889v49q0 160 62.5 227.5t203.5 67.5t202.5 -67.5t61.5 -227.5v-49q0 -160 -61.5 -228.5t-202.5 -68.5t-203.5 68.5t-62.5 228.5zM219 901q0 -110 26 -149t93 -39t92 38.5t25 149.5v21q0 109 -25 149.5t-92 40.5t-93 -40.5t-26 -149.5v-21z" />
<glyph unicode="&#xbb;" horiz-adv-x="1112" d="M72 229q0 18 22 37l225 209l-225 211q-22 19 -22 37q0 21 30 49l33 31q19 16 35 16q18 0 51 -26l297 -246q29 -23 29 -64v-16q0 -41 -29 -64l-297 -243q-34 -27 -51 -27q-15 0 -35 17l-33 30q-30 28 -30 49zM561 229q0 17 23 37l225 209l-225 211q-23 20 -23 37 q0 20 31 49l33 31q19 16 34 16q19 0 52 -26l297 -246q28 -22 28 -64v-16q0 -42 -28 -64l-297 -243q-34 -27 -52 -27q-14 0 -34 17l-33 30q-31 29 -31 49z" />
<glyph unicode="&#xbc;" horiz-adv-x="1730" d="M86 1178q0 12 14 22l152 98q28 19 42 23t48 4h70q28 0 40.5 -10.5t12.5 -36.5v-549h137q22 0 30.5 -8t8.5 -27v-69q0 -21 -8.5 -28t-30.5 -7h-442q-22 0 -30.5 7t-8.5 28v69q0 19 8.5 27t30.5 8h145v430h-8l-115 -76q-13 -10 -22 -10q-12 0 -25 19l-33 51q-16 22 -16 35z M438 -4q0 16 45 90l729 1225q18 32 64 32h100q35 0 35 -20q0 -16 -45 -90l-729 -1225q-18 -33 -64 -33h-100q-35 0 -35 21zM1010 203v55q0 18 26 57l236 373q18 27 37 37t49 10h115q27 0 36 -8.5t9 -34.5v-393h69q15 0 20 -5t5 -22v-73q0 -16 -5.5 -22.5t-19.5 -6.5h-69 v-141q0 -29 -33 -29h-99q-32 0 -32 29v141h-310q-22 0 -28 6t-6 27zM1167 299h187v287h-4z" />
<glyph unicode="&#xbd;" horiz-adv-x="1730" d="M86 1178q0 12 14 22l152 98q28 19 42 23t48 4h70q28 0 40.5 -10.5t12.5 -36.5v-549h137q22 0 30.5 -8t8.5 -27v-69q0 -21 -8.5 -28t-30.5 -7h-442q-22 0 -30.5 7t-8.5 28v69q0 19 8.5 27t30.5 8h145v430h-8l-115 -76q-13 -10 -22 -10q-12 0 -25 19l-33 51q-16 22 -16 35z M438 -4q0 16 45 90l729 1225q18 32 64 32h100q35 0 35 -20q0 -16 -45 -90l-729 -1225q-18 -33 -64 -33h-100q-35 0 -35 21zM1143 41v53q0 107 34 173.5t113 105.5l96 47q54 27 74.5 49.5t20.5 58.5v7q0 40 -26 56.5t-79 16.5q-66 0 -143 -22q-15 -6 -25 -6q-9 0 -12.5 7 t-9.5 34l-8 34q-7 28 -7 39q0 19 25 27q97 33 209 33q115 0 177.5 -53.5t62.5 -151.5v-12q0 -81 -33.5 -131.5t-118.5 -92.5l-100 -49q-50 -25 -67 -49t-17 -61v-15h290q21 0 28 -7t7 -28v-69q0 -19 -7.5 -27t-27.5 -8h-413q-25 0 -34 8.5t-9 32.5z" />
<glyph unicode="&#xbe;" horiz-adv-x="1730" d="M137 631q0 18 6 45l9 43q5 24 24 24q7 0 19 -4q84 -26 161 -26q119 0 119 86v10q0 55 -27 72.5t-112 17.5h-43q-17 0 -24 7t-7 26v72q0 17 7 23.5t24 6.5h41q80 0 106.5 20t26.5 68v11q0 69 -98 69q-61 0 -136 -22q-12 -4 -20 -4q-9 0 -13.5 5.5t-9.5 20.5l-10 41 q-8 32 -8 41q0 14 21 23q89 36 210 36q109 0 168.5 -47t59.5 -141v-16q0 -127 -96 -166v-6q108 -27 108 -156v-12q0 -109 -67.5 -166.5t-200.5 -57.5q-113 0 -209 29q-29 9 -29 27zM406 -4q0 16 45 90l729 1225q10 18 24 25t39 7h100q35 0 35 -20q0 -16 -45 -90l-729 -1225 q-18 -33 -63 -33h-101q-34 0 -34 21zM1010 203v55q0 18 26 57l236 373q18 27 37 37t49 10h115q27 0 36 -8.5t9 -34.5v-393h69q15 0 20 -5t5 -22v-73q0 -16 -5.5 -22.5t-19.5 -6.5h-69v-141q0 -29 -33 -29h-99q-32 0 -32 29v141h-310q-22 0 -28 6t-6 27zM1167 299h187v287h-4 z" />
<glyph unicode="&#xbf;" horiz-adv-x="909" d="M84 -4q0 214 219 358l55 37q78 54 109 108t31 144v6q0 19 7.5 26t29.5 7h86q36 0 36 -33v-12q0 -144 -35.5 -213t-132.5 -135l-59 -41q-81 -56 -113 -113.5t-32 -132.5v-12q0 -85 50 -127.5t157 -42.5q71 0 161 22q30 7 61.5 17.5t49 16t27.5 5.5q19 0 26 -26l12 -41 q13 -43 13 -54q0 -20 -27 -32q-158 -68 -348 -68q-185 0 -284 80.5t-99 243.5v12zM457 897q0 64 27 94.5t85 30.5h15q60 0 86 -29t26 -90v-16q0 -53 -31 -81t-81 -28h-15q-112 0 -112 119z" />
<glyph unicode="&#xc0;" horiz-adv-x="1122" d="M31 25q0 16 14 63q176 640 365 1172q15 42 35.5 53.5t72.5 11.5h86q53 0 73.5 -11.5t35.5 -53.5q184 -519 364 -1172q15 -50 15 -63q0 -25 -41 -25h-99q-37 0 -49.5 7.5t-19.5 35.5q-48 191 -84 315h-475q-36 -124 -84 -315q-7 -28 -20 -35.5t-50 -7.5h-98q-41 0 -41 25z M266 1612q0 6 17 45l39 74q9 21 26 24q14 0 31 -10l344 -174q24 -10 27 -25q0 -7 -13 -30l-26 -54q-12 -26 -27 -26q-16 0 -37 8l-348 137q-30 12 -33 31zM371 528h381q-103 355 -185 598h-12q-75 -222 -184 -598z" />
<glyph unicode="&#xc1;" horiz-adv-x="1122" d="M31 25q0 16 14 63q176 640 365 1172q15 42 35.5 53.5t72.5 11.5h86q53 0 73.5 -11.5t35.5 -53.5q184 -519 364 -1172q15 -50 15 -63q0 -25 -41 -25h-99q-37 0 -49.5 7.5t-19.5 35.5q-48 191 -84 315h-475q-36 -124 -84 -315q-7 -28 -20 -35.5t-50 -7.5h-98q-41 0 -41 25z M371 528h381q-103 355 -185 598h-12q-75 -222 -184 -598zM383 1546q3 15 27 25l344 174q18 10 30 10q18 -4 27 -24l39 -74q16 -37 16 -45q-3 -20 -32 -31l-349 -137q-21 -8 -36 -8t-27 26l-27 54q-12 21 -12 30z" />
<glyph unicode="&#xc2;" horiz-adv-x="1122" d="M31 25q0 16 14 63q176 640 365 1172q15 42 35.5 53.5t72.5 11.5h86q53 0 73.5 -11.5t35.5 -53.5q184 -519 364 -1172q15 -50 15 -63q0 -25 -41 -25h-99q-37 0 -49.5 7.5t-19.5 35.5q-48 191 -84 315h-475q-36 -124 -84 -315q-7 -28 -20 -35.5t-50 -7.5h-98q-41 0 -41 25z M254 1520q0 9 14 26l201 234q16 18 43 18h94q27 0 43 -18l201 -234q14 -17 14 -26q0 -12 -16 -25l-47 -33q-22 -16 -35 -16t-29 16l-174 178h-8l-174 -178q-16 -16 -29 -16t-35 16l-47 33q-16 13 -16 25zM371 528h381q-103 355 -185 598h-12q-75 -222 -184 -598z" />
<glyph unicode="&#xc3;" horiz-adv-x="1122" d="M31 25q0 16 14 63q176 640 365 1172q15 42 35.5 53.5t72.5 11.5h86q53 0 73.5 -11.5t35.5 -53.5q184 -519 364 -1172q15 -50 15 -63q0 -25 -41 -25h-99q-37 0 -49.5 7.5t-19.5 35.5q-48 191 -84 315h-475q-36 -124 -84 -315q-7 -28 -20 -35.5t-50 -7.5h-98q-41 0 -41 25z M223 1530q0 8 6 20q81 170 217 170q62 0 117 -39l58 -39q46 -30 75 -30q55 0 103 80q8 14 20 14q8 0 25 -10l41 -27q18 -12 18 -24q0 -9 -6 -21q-91 -162 -215 -162q-59 0 -117 37l-55 39q-20 13 -28 17.5t-20.5 9t-25.5 4.5q-48 0 -98 -82q-10 -19 -23 -19q-8 0 -32 15 l-43 24q-17 10 -17 23zM371 528h381q-103 355 -185 598h-12q-75 -222 -184 -598z" />
<glyph unicode="&#xc4;" horiz-adv-x="1122" d="M31 25q0 16 14 63q176 640 365 1172q15 42 35.5 53.5t72.5 11.5h86q53 0 73.5 -11.5t35.5 -53.5q184 -519 364 -1172q15 -50 15 -63q0 -25 -41 -25h-99q-37 0 -49.5 7.5t-19.5 35.5q-48 191 -84 315h-475q-36 -124 -84 -315q-7 -28 -20 -35.5t-50 -7.5h-98q-41 0 -41 25z M283 1589v33q0 47 26 72.5t72 25.5h20q101 0 101 -98v-33q0 -98 -101 -98h-20q-46 0 -72 25.5t-26 72.5zM371 528h381q-103 355 -185 598h-12q-75 -222 -184 -598zM616 1589v33q0 47 26.5 72.5t72.5 25.5h20q101 0 101 -98v-33q0 -98 -101 -98h-20q-46 0 -72.5 25.5 t-26.5 72.5z" />
<glyph unicode="&#xc5;" horiz-adv-x="1122" d="M31 25q0 16 14 63q176 640 365 1172q15 42 35.5 53.5t72.5 11.5h86q53 0 73.5 -11.5t35.5 -53.5q184 -519 364 -1172q15 -50 15 -63q0 -25 -41 -25h-99q-37 0 -49.5 7.5t-19.5 35.5q-48 191 -84 315h-475q-36 -124 -84 -315q-7 -28 -20 -35.5t-50 -7.5h-98q-41 0 -41 25z M369 1602q0 85 54.5 138.5t137.5 53.5t138 -53.5t55 -138.5t-55 -139t-138 -54t-137.5 54t-54.5 139zM371 528h381q-103 355 -185 598h-12q-75 -222 -184 -598zM483 1602q0 -35 22 -57.5t56 -22.5t56 22.5t22 57.5t-22 57t-56 22t-56 -22t-22 -57z" />
<glyph unicode="&#xc6;" horiz-adv-x="1675" d="M27 23q0 13 20 53q398 803 598 1167q27 47 59.5 64.5t96.5 17.5h749q24 0 31.5 -6.5t7.5 -28.5v-92q0 -22 -7.5 -28.5t-31.5 -6.5h-551v-399h474q23 0 30.5 -6.5t7.5 -28.5v-92q0 -22 -7.5 -28.5t-30.5 -6.5h-474v-358q0 -47 19 -64.5t69 -17.5h463q24 0 31.5 -6.5 t7.5 -28.5v-92q0 -22 -7.5 -28.5t-31.5 -6.5h-481q-140 0 -203 50t-63 173v135h-410l-149 -315q-11 -24 -29.5 -33.5t-56.5 -9.5h-78q-53 0 -53 23zM477 528h326v635h-15q-53 -101 -101.5 -199.5t-118 -244t-91.5 -191.5z" />
<glyph unicode="&#xc7;" horiz-adv-x="1060" d="M104 614v95q0 236 37 351.5t129 186.5q125 96 340 96q94 0 188.5 -25t166.5 -67q20 -11 20 -26q0 -16 -16 -49l-31 -62q-9 -18 -27 -18q-10 0 -26 8q-133 76 -273 76q-149 0 -217 -74q-46 -49 -65 -138t-19 -282v-47q0 -198 15 -280.5t59 -133.5q72 -80 252 -80 q118 0 262 50q24 8 33 8q18 0 24 -19l13 -39q14 -48 14 -65q0 -22 -25 -31q-153 -61 -327 -67l-19 -109q30 6 66 6q66 0 109.5 -41t43.5 -123q0 -196 -239 -196q-77 0 -156 22q-20 6 -20 21q0 13 4 37l6 39q3 20 16 20q7 0 23 -4q58 -16 113 -16t78.5 15t23.5 56 q0 30 -15.5 44t-52.5 14q-29 0 -69 -7q-20 -4 -23 -4q-11 0 -20 15l-17 26q-6 12 -6 23q0 9 6 39l23 129q-190 17 -283 116q-69 74 -94 183.5t-25 326.5z" />
<glyph unicode="&#xc8;" horiz-adv-x="995" d="M115 627v80q0 282 12 395q12 129 72.5 176t197.5 47h471q25 0 33 -8.5t8 -32.5v-82q0 -23 -8 -32t-33 -9h-454q-44 0 -66.5 -18t-25.5 -58q-11 -147 -11 -321h475q25 0 33 -8t8 -31v-84q0 -22 -8 -30.5t-33 -8.5h-475q0 -246 15 -369q4 -39 24 -55t62 -16h454q27 0 35 -8 t8 -31v-84q0 -23 -8 -31t-35 -8h-471q-137 0 -194.5 48t-69.5 188q-16 184 -16 391zM311 1602q0 6 17 45l39 73q10 22 26 25q13 0 31 -10l344 -174q24 -10 27 -25q0 -8 -13 -31l-26 -53q-12 -27 -27 -27q-13 0 -37 9l-348 137q-30 12 -33 31z" />
<glyph unicode="&#xc9;" horiz-adv-x="995" d="M115 627v80q0 282 12 395q12 129 72.5 176t197.5 47h471q25 0 33 -8.5t8 -32.5v-82q0 -23 -8 -32t-33 -9h-454q-44 0 -66.5 -18t-25.5 -58q-11 -147 -11 -321h475q25 0 33 -8t8 -31v-84q0 -22 -8 -30.5t-33 -8.5h-475q0 -246 15 -369q4 -39 24 -55t62 -16h454q27 0 35 -8 t8 -31v-84q0 -23 -8 -31t-35 -8h-471q-137 0 -194.5 48t-69.5 188q-16 184 -16 391zM377 1536q3 15 26 25l345 174q17 10 30 10q17 -3 27 -25l39 -73q16 -37 16 -45q-3 -19 -33 -31l-348 -137q-24 -9 -37 -9q-14 0 -26 27l-27 53q-12 21 -12 31z" />
<glyph unicode="&#xca;" horiz-adv-x="995" d="M115 627v80q0 282 12 395q12 129 72.5 176t197.5 47h471q25 0 33 -8.5t8 -32.5v-82q0 -23 -8 -32t-33 -9h-454q-44 0 -66.5 -18t-25.5 -58q-11 -147 -11 -321h475q25 0 33 -8t8 -31v-84q0 -22 -8 -30.5t-33 -8.5h-475q0 -246 15 -369q4 -39 24 -55t62 -16h454q27 0 35 -8 t8 -31v-84q0 -23 -8 -31t-35 -8h-471q-137 0 -194.5 48t-69.5 188q-16 184 -16 391zM256 1509q0 10 14 27l201 233q17 19 43 19h94q26 0 43 -19l201 -233q14 -17 14 -27q0 -11 -16 -24l-47 -33q-22 -16 -35 -16t-29 16l-174 178h-8l-174 -178q-16 -16 -29 -16t-35 16l-47 33 q-16 13 -16 24z" />
<glyph unicode="&#xcb;" horiz-adv-x="995" d="M115 627v80q0 282 12 395q12 129 72.5 176t197.5 47h471q25 0 33 -8.5t8 -32.5v-82q0 -23 -8 -32t-33 -9h-454q-44 0 -66.5 -18t-25.5 -58q-11 -147 -11 -321h475q25 0 33 -8t8 -31v-84q0 -22 -8 -30.5t-33 -8.5h-475q0 -246 15 -369q4 -39 24 -55t62 -16h454q27 0 35 -8 t8 -31v-84q0 -23 -8 -31t-35 -8h-471q-137 0 -194.5 48t-69.5 188q-16 184 -16 391zM276 1579v33q0 47 26.5 72.5t72.5 25.5h20q101 0 101 -98v-33q0 -98 -101 -98h-20q-46 0 -72.5 25.5t-26.5 72.5zM610 1579v33q0 47 26.5 72.5t72.5 25.5h20q100 0 100 -98v-33 q0 -98 -100 -98h-20q-46 0 -72.5 25.5t-26.5 72.5z" />
<glyph unicode="&#xcc;" horiz-adv-x="503" d="M-82 1602q0 8 16 45l39 73q10 22 27 25q13 0 31 -10l344 -174q23 -10 26 -25q0 -10 -12 -31l-27 -53q-12 -27 -26 -27q-13 0 -37 9l-348 137q-30 12 -33 31zM152 43v1239q0 25 9 34t34 9h112q25 0 35 -9.5t10 -33.5v-1239q0 -26 -9.5 -34.5t-35.5 -8.5h-110 q-26 0 -35.5 8.5t-9.5 34.5z" />
<glyph unicode="&#xcd;" horiz-adv-x="503" d="M92 1536q3 15 27 25l344 174q17 10 31 10q16 -3 26 -25l39 -73q16 -37 16 -45q-3 -20 -32 -31l-348 -137q-24 -9 -37 -9q-15 0 -27 27l-27 53q-12 21 -12 31zM152 43v1239q0 25 9 34t34 9h112q25 0 35 -9.5t10 -33.5v-1239q0 -26 -9.5 -34.5t-35.5 -8.5h-110 q-26 0 -35.5 8.5t-9.5 34.5z" />
<glyph unicode="&#xce;" horiz-adv-x="503" d="M-53 1509q0 10 14 27l201 233q17 19 43 19h94q26 0 43 -19l201 -233q14 -17 14 -27q0 -11 -16 -24l-47 -33q-22 -16 -35 -16t-29 16l-174 178h-8l-174 -178q-16 -16 -29 -16t-35 16l-47 33q-16 13 -16 24zM152 43v1239q0 25 9 34t34 9h112q25 0 35 -9.5t10 -33.5v-1239 q0 -26 -9.5 -34.5t-35.5 -8.5h-110q-26 0 -35.5 8.5t-9.5 34.5z" />
<glyph unicode="&#xcf;" horiz-adv-x="503" d="M-25 1579v33q0 47 26.5 72.5t72.5 25.5h20q101 0 101 -98v-33q0 -98 -101 -98h-20q-46 0 -72.5 25.5t-26.5 72.5zM152 43v1239q0 25 9 34t34 9h112q25 0 35 -9.5t10 -33.5v-1239q0 -26 -9.5 -34.5t-35.5 -8.5h-110q-26 0 -35.5 8.5t-9.5 34.5zM309 1579v33 q0 47 26.5 72.5t72.5 25.5h20q100 0 100 -98v-33q0 -98 -100 -98h-20q-46 0 -72.5 25.5t-26.5 72.5z" />
<glyph unicode="&#xd0;" horiz-adv-x="1269" d="M33 639v80q0 27 8 36t33 9h110v493q0 36 13.5 51.5t46.5 18.5q123 12 264 12q175 0 295.5 -31t203 -103.5t120.5 -191t38 -292.5v-109q0 -165 -33.5 -277.5t-110.5 -189t-202 -111t-309 -34.5q-186 0 -264 2q-34 2 -48 15.5t-14 45.5v531h-110q-25 0 -33 9t-8 36z M385 197q0 -20 8.5 -28.5t28.5 -8.5h115q118 0 194.5 21.5t129 76.5t75 146.5t22.5 232.5v59q0 142 -22.5 234t-75.5 147.5t-132 78t-200 22.5q-66 0 -112 -4q-31 -3 -31 -35v-375h205q29 0 37 -10t8 -43v-68q0 -15 -5 -25t-10 -14.5t-18.5 -7t-20 -2.5h-24.5h-172v-397z " />
<glyph unicode="&#xd1;" horiz-adv-x="1273" d="M141 43v1225q0 34 13 45.5t49 11.5h108q40 0 59.5 -12.5t37.5 -44.5l530 -975h10v989q0 25 9 34t34 9h99q25 0 34 -9t9 -34v-1227q0 -33 -13 -44t-49 -11h-108q-39 0 -59 12t-38 43l-530 977h-10v-989q0 -26 -9 -34.5t-34 -8.5h-99q-25 0 -34 8.5t-9 34.5zM307 1520 q0 8 6 20q81 170 217 170q62 0 117 -39l58 -39q47 -30 75 -30q56 0 103 79q9 15 20 15q8 0 25 -10l41 -27q18 -12 18 -25q0 -8 -6 -20q-91 -162 -215 -162q-59 0 -117 37l-55 39q-20 13 -28 17.5t-20.5 9t-25.5 4.5q-48 0 -98 -82q-10 -19 -23 -19q-8 0 -32 15l-43 24 q-17 10 -17 23z" />
<glyph unicode="&#xd2;" horiz-adv-x="1228" d="M104 614v95q0 206 27 316.5t100 191.5q55 60 153.5 93t229.5 33t229.5 -33t153.5 -93q73 -81 100 -191.5t27 -316.5v-95q0 -206 -27 -315t-100 -190q-55 -60 -153.5 -93.5t-229.5 -33.5t-229.5 33.5t-153.5 93.5q-73 81 -100 190t-27 315zM311 639q0 -175 13.5 -264.5 t60.5 -143.5q74 -86 229 -86q156 0 230 86q47 54 60.5 143.5t13.5 264.5v47q0 175 -13.5 264.5t-60.5 143.5q-74 86 -230 86q-155 0 -229 -86q-47 -54 -60.5 -143.5t-13.5 -264.5v-47zM354 1602q0 6 17 45l39 73q10 22 26 25q14 0 31 -10l344 -174q24 -10 27 -25 q0 -8 -13 -31l-26 -53q-12 -27 -27 -27q-13 0 -37 9l-348 137q-30 12 -33 31z" />
<glyph unicode="&#xd3;" horiz-adv-x="1228" d="M104 614v95q0 206 27 316.5t100 191.5q55 60 153.5 93t229.5 33t229.5 -33t153.5 -93q73 -81 100 -191.5t27 -316.5v-95q0 -206 -27 -315t-100 -190q-55 -60 -153.5 -93.5t-229.5 -33.5t-229.5 33.5t-153.5 93.5q-73 81 -100 190t-27 315zM311 639q0 -175 13.5 -264.5 t60.5 -143.5q74 -86 229 -86q156 0 230 86q47 54 60.5 143.5t13.5 264.5v47q0 175 -13.5 264.5t-60.5 143.5q-74 86 -230 86q-155 0 -229 -86q-47 -54 -60.5 -143.5t-13.5 -264.5v-47zM424 1536q3 15 27 25l344 174q17 10 30 10q17 -3 27 -25l39 -73q16 -37 16 -45 q-3 -19 -33 -31l-348 -137q-24 -9 -37 -9q-14 0 -26 27l-27 53q-12 21 -12 31z" />
<glyph unicode="&#xd4;" horiz-adv-x="1228" d="M104 614v95q0 206 27 316.5t100 191.5q55 60 153.5 93t229.5 33t229.5 -33t153.5 -93q73 -81 100 -191.5t27 -316.5v-95q0 -206 -27 -315t-100 -190q-55 -60 -153.5 -93.5t-229.5 -33.5t-229.5 33.5t-153.5 93.5q-73 81 -100 190t-27 315zM311 639q0 -175 13.5 -264.5 t60.5 -143.5q74 -86 229 -86q156 0 230 86q47 54 60.5 143.5t13.5 264.5v47q0 175 -13.5 264.5t-60.5 143.5q-74 86 -230 86q-155 0 -229 -86q-47 -54 -60.5 -143.5t-13.5 -264.5v-47zM311 1509q0 8 15 27l200 233q17 19 43 19h95q26 0 43 -19l200 -233q15 -19 15 -27 q0 -10 -17 -24l-47 -33q-22 -16 -35 -16q-12 0 -28 16l-174 178h-9l-174 -178q-16 -16 -28 -16q-13 0 -35 16l-47 33q-17 14 -17 24z" />
<glyph unicode="&#xd5;" horiz-adv-x="1228" d="M104 614v95q0 206 27 316.5t100 191.5q55 60 153.5 93t229.5 33t229.5 -33t153.5 -93q73 -81 100 -191.5t27 -316.5v-95q0 -206 -27 -315t-100 -190q-55 -60 -153.5 -93.5t-229.5 -33.5t-229.5 33.5t-153.5 93.5q-73 81 -100 190t-27 315zM276 1520q0 6 7 20 q81 170 217 170q61 0 116 -39l58 -39q47 -30 76 -30q55 0 102 79q9 15 20 15q8 0 25 -10l41 -27q18 -12 18 -25q0 -8 -6 -20q-91 -162 -215 -162q-59 0 -117 37l-55 39q-20 13 -28 17.5t-20.5 9t-25.5 4.5q-48 0 -98 -82q-9 -19 -22 -19q-9 0 -33 15l-43 24q-17 10 -17 23z M311 639q0 -175 13.5 -264.5t60.5 -143.5q74 -86 229 -86q156 0 230 86q47 54 60.5 143.5t13.5 264.5v47q0 175 -13.5 264.5t-60.5 143.5q-74 86 -230 86q-155 0 -229 -86q-47 -54 -60.5 -143.5t-13.5 -264.5v-47z" />
<glyph unicode="&#xd6;" horiz-adv-x="1228" d="M104 614v95q0 206 27 316.5t100 191.5q55 60 153.5 93t229.5 33t229.5 -33t153.5 -93q73 -81 100 -191.5t27 -316.5v-95q0 -206 -27 -315t-100 -190q-55 -60 -153.5 -93.5t-229.5 -33.5t-229.5 33.5t-153.5 93.5q-73 81 -100 190t-27 315zM311 639q0 -175 13.5 -264.5 t60.5 -143.5q74 -86 229 -86q156 0 230 86q47 54 60.5 143.5t13.5 264.5v47q0 175 -13.5 264.5t-60.5 143.5q-74 86 -230 86q-155 0 -229 -86q-47 -54 -60.5 -143.5t-13.5 -264.5v-47zM342 1579v33q0 47 26 72.5t72 25.5h21q100 0 100 -98v-33q0 -98 -100 -98h-21 q-46 0 -72 25.5t-26 72.5zM676 1579v33q0 47 26 72.5t72 25.5h21q100 0 100 -98v-33q0 -98 -100 -98h-21q-46 0 -72 25.5t-26 72.5z" />
<glyph unicode="&#xd7;" d="M171.5 789.5q1.5 11.5 25.5 35.5l49 49q23 23 35.5 25.5t35.5 -16.5l224 -226l221 220q20 20 35 20.5t32 -18.5l60 -60q19 -19 18.5 -33t-20.5 -34l-219 -222l225 -223q19 -23 17 -35.5t-25 -35.5l-49 -50q-24 -24 -36 -25t-34 19l-225 226l-219 -220 q-20 -20 -34.5 -20.5t-33.5 18.5l-59 60q-19 17 -18.5 32t20.5 35l219 219l-226 226q-20 22 -18.5 33.5z" />
<glyph unicode="&#xd8;" horiz-adv-x="1228" d="M104 614v95q0 206 27 316.5t100 191.5q55 60 153.5 93t229.5 33q162 0 273 -51l71 129q12 25 29 25q14 0 39 -14l39 -21q27 -15 27 -29q0 -12 -27 -59l-64 -113q70 -81 96.5 -190.5t26.5 -310.5v-95q0 -206 -27 -315t-100 -190q-55 -60 -153.5 -93.5t-229.5 -33.5 q-149 0 -266 47l-65 -121q-16 -25 -29 -25q-12 0 -39 15l-39 20q-26 14 -26 29q0 13 26 59l55 100v3q-73 81 -100 190t-27 315zM311 639q0 -132 5.5 -206.5t25.5 -127.5l457 828q-68 47 -185 47q-155 0 -229 -86q-47 -54 -60.5 -143.5t-13.5 -264.5v-47zM436 186 q61 -41 178 -41q156 0 230 86q47 54 60.5 143.5t13.5 264.5v47q0 125 -5 197.5t-22 124.5z" />
<glyph unicode="&#xd9;" horiz-adv-x="1226" d="M131 438v844q0 24 9.5 33.5t33.5 9.5h115q24 0 33.5 -9.5t9.5 -33.5v-833q0 -166 59 -228q70 -76 221 -76q154 0 224 76q59 64 59 228v833q0 24 10 33.5t35 9.5h111q25 0 35 -9.5t10 -33.5v-844q0 -238 -117 -346q-119 -110 -367 -110q-128 0 -214.5 27t-149.5 83 q-117 105 -117 346zM342 1602q0 8 16 45l39 73q10 22 27 25q14 0 31 -10l344 -174q23 -10 26 -25q0 -10 -12 -31l-27 -53q-12 -27 -26 -27q-13 0 -37 9l-348 137q-30 12 -33 31z" />
<glyph unicode="&#xda;" horiz-adv-x="1226" d="M131 438v844q0 24 9.5 33.5t33.5 9.5h115q24 0 33.5 -9.5t9.5 -33.5v-833q0 -166 59 -228q70 -76 221 -76q154 0 224 76q59 64 59 228v833q0 24 10 33.5t35 9.5h111q25 0 35 -9.5t10 -33.5v-844q0 -238 -117 -346q-119 -110 -367 -110q-128 0 -214.5 27t-149.5 83 q-117 105 -117 346zM426 1536q3 15 27 25l344 174q17 10 30 10q17 -3 27 -25l39 -73q16 -37 16 -45q-3 -20 -32 -31l-349 -137q-24 -9 -36 -9q-15 0 -27 27l-27 53q-12 21 -12 31z" />
<glyph unicode="&#xdb;" horiz-adv-x="1226" d="M131 438v844q0 24 9.5 33.5t33.5 9.5h115q24 0 33.5 -9.5t9.5 -33.5v-833q0 -166 59 -228q70 -76 221 -76q154 0 224 76q59 64 59 228v833q0 24 10 33.5t35 9.5h111q25 0 35 -9.5t10 -33.5v-844q0 -238 -117 -346q-119 -110 -367 -110q-128 0 -214.5 27t-149.5 83 q-117 105 -117 346zM311 1509q0 8 15 27l200 233q17 19 43 19h95q26 0 43 -19l200 -233q15 -19 15 -27q0 -10 -17 -24l-47 -33q-22 -16 -35 -16q-12 0 -28 16l-174 178h-9l-174 -178q-16 -16 -28 -16q-13 0 -35 16l-47 33q-17 14 -17 24z" />
<glyph unicode="&#xdc;" horiz-adv-x="1226" d="M131 438v844q0 24 9.5 33.5t33.5 9.5h115q24 0 33.5 -9.5t9.5 -33.5v-833q0 -166 59 -228q70 -76 221 -76q154 0 224 76q59 64 59 228v833q0 24 10 33.5t35 9.5h111q25 0 35 -9.5t10 -33.5v-844q0 -238 -117 -346q-119 -110 -367 -110q-128 0 -214.5 27t-149.5 83 q-117 105 -117 346zM340 1579v33q0 47 26 72.5t72 25.5h21q100 0 100 -98v-33q0 -98 -100 -98h-21q-46 0 -72 25.5t-26 72.5zM674 1579v33q0 47 26 72.5t72 25.5h21q100 0 100 -98v-33q0 -98 -100 -98h-21q-46 0 -72 25.5t-26 72.5z" />
<glyph unicode="&#xdd;" horiz-adv-x="978" d="M31 1300q0 15 9.5 20t33.5 5h98q44 0 53 -35q87 -336 258 -686h13q164 336 258 686q9 35 53 35h98q24 0 33.5 -5t9.5 -20q0 -14 -14 -61q-135 -435 -344 -809v-389q0 -25 -9.5 -33t-35.5 -8h-111q-26 0 -35.5 8t-9.5 33v389q-206 362 -344 809q-14 47 -14 61zM305 1536 q3 15 27 25l344 174q17 10 31 10q16 -3 26 -25l39 -73q16 -37 16 -45q-3 -20 -32 -31l-348 -137q-24 -9 -37 -9q-15 0 -27 27l-27 53q-12 21 -12 31z" />
<glyph unicode="&#xde;" horiz-adv-x="1058" d="M141 43v1239q0 25 9 34t34 9h113q25 0 35 -9.5t10 -33.5v-162q94 4 162 4q261 0 377 -92t116 -309v-33q0 -418 -493 -418q-111 0 -162 2v-231q0 -26 -9.5 -34.5t-35.5 -8.5h-111q-26 0 -35.5 8.5t-9.5 34.5zM342 436q45 -2 143 -2q159 0 232.5 56.5t73.5 203.5v25 q0 134 -65.5 189t-223.5 55q-74 0 -160 -7v-520z" />
<glyph unicode="&#xdf;" horiz-adv-x="1075" d="M131 -115v1135q0 206 96.5 295.5t311.5 89.5q184 0 289.5 -86.5t105.5 -247.5v-24q0 -112 -45 -192.5t-125 -109.5v-6q126 -25 181.5 -106t55.5 -217v-37q0 -209 -96.5 -303t-290.5 -94q-105 0 -190 16q-31 6 -31 25q0 14 4 47l6 55q4 25 25 25q5 0 57.5 -7.5t100.5 -7.5 q122 0 173.5 63t51.5 193v23q0 129 -62 181t-202 52h-64q-32 0 -32 29v96q0 33 32 33h25q125 0 180 54t55 171v19q0 98 -50 148t-161 50q-121 0 -167 -56.5t-46 -201.5v-1104q0 -22 -8.5 -29.5t-31.5 -7.5h-107q-22 0 -31.5 8t-9.5 29z" />
<glyph unicode="&#xe0;" horiz-adv-x="974" d="M78 276v33q0 169 98 242q44 35 116.5 50t199.5 15h49q69 0 125 -6v86q0 96 -47 132t-156 36q-103 0 -223 -30q-37 -9 -43 -9q-21 0 -27 29l-8 39q-8 41 -8 53q0 23 28 31q137 45 297 45q199 0 287 -78.5t88 -269.5v-645q0 -15 -7.5 -22t-25.5 -7h-80q-33 0 -39 29l-8 59 h-4q-52 -106 -246 -106h-63q-303 0 -303 294zM252 1333q0 13 18 43l43 72q12 22 29 22q14 0 31 -10l332 -194q24 -14 24 -27q0 -10 -12 -31l-31 -51q-13 -24 -29 -24q-11 0 -34 10l-340 157q-31 15 -31 33zM268 279q0 -77 33 -110.5t111 -33.5h67q95 0 141 41.5t46 132.5 v148q-49 6 -111 6h-90q-109 0 -153 -33.5t-44 -122.5v-28z" />
<glyph unicode="&#xe1;" horiz-adv-x="974" d="M78 276v33q0 169 98 242q44 35 116.5 50t199.5 15h49q69 0 125 -6v86q0 96 -47 132t-156 36q-103 0 -223 -30q-37 -9 -43 -9q-21 0 -27 29l-8 39q-8 41 -8 53q0 23 28 31q137 45 297 45q199 0 287 -78.5t88 -269.5v-645q0 -15 -7.5 -22t-25.5 -7h-80q-33 0 -39 29l-8 59 h-4q-52 -106 -246 -106h-63q-303 0 -303 294zM268 279q0 -77 33 -110.5t111 -33.5h67q95 0 141 41.5t46 132.5v148q-49 6 -111 6h-90q-109 0 -153 -33.5t-44 -122.5v-28zM309 1239q0 13 25 27l332 194q17 10 30 10q17 0 29 -22l43 -72q18 -30 18 -43q0 -19 -30 -33 l-340 -157q-23 -10 -35 -10q-16 0 -29 24l-30 51q-13 23 -13 31z" />
<glyph unicode="&#xe2;" horiz-adv-x="974" d="M78 276v33q0 169 98 242q44 35 116.5 50t199.5 15h49q69 0 125 -6v86q0 96 -47 132t-156 36q-103 0 -223 -30q-37 -9 -43 -9q-21 0 -27 29l-8 39q-8 41 -8 53q0 23 28 31q137 45 297 45q199 0 287 -78.5t88 -269.5v-645q0 -15 -7.5 -22t-25.5 -7h-80q-33 0 -39 29l-8 59 h-4q-52 -106 -246 -106h-63q-303 0 -303 294zM199 1202q0 10 14 27l201 233q17 19 43 19h94q26 0 43 -19l201 -233q14 -17 14 -27q0 -11 -16 -24l-48 -33q-24 -17 -34 -17q-12 0 -29 17l-174 178h-8l-174 -178q-17 -17 -29 -17q-11 0 -35 17l-47 33q-16 13 -16 24zM268 279 q0 -77 33 -110.5t111 -33.5h67q95 0 141 41.5t46 132.5v148q-49 6 -111 6h-90q-109 0 -153 -33.5t-44 -122.5v-28z" />
<glyph unicode="&#xe3;" horiz-adv-x="974" d="M78 276v33q0 169 98 242q44 35 116.5 50t199.5 15h49q69 0 125 -6v86q0 96 -47 132t-156 36q-103 0 -223 -30q-37 -9 -43 -9q-21 0 -27 29l-8 39q-8 41 -8 53q0 23 28 31q137 45 297 45q199 0 287 -78.5t88 -269.5v-645q0 -15 -7.5 -22t-25.5 -7h-80q-33 0 -39 29l-8 59 h-4q-52 -106 -246 -106h-63q-303 0 -303 294zM172 1229q0 8 6 20q81 170 217 170q62 0 117 -39l57 -39q46 -30 76 -30q55 0 103 80q8 14 20 14q8 0 25 -10l41 -27q18 -12 18 -25q0 -8 -6 -20q-91 -162 -215 -162q-59 0 -117 37l-55 39q-20 13 -28 17.5t-20.5 9t-25.5 4.5 q-48 0 -98 -82q-9 -19 -23 -19q-9 0 -33 15l-43 24q-16 10 -16 23zM268 279q0 -77 33 -110.5t111 -33.5h67q95 0 141 41.5t46 132.5v148q-49 6 -111 6h-90q-109 0 -153 -33.5t-44 -122.5v-28z" />
<glyph unicode="&#xe4;" horiz-adv-x="974" d="M78 276v33q0 169 98 242q44 35 116.5 50t199.5 15h49q69 0 125 -6v86q0 96 -47 132t-156 36q-103 0 -223 -30q-37 -9 -43 -9q-21 0 -27 29l-8 39q-8 41 -8 53q0 23 28 31q137 45 297 45q199 0 287 -78.5t88 -269.5v-645q0 -15 -7.5 -22t-25.5 -7h-80q-33 0 -39 29l-8 59 h-4q-52 -106 -246 -106h-63q-303 0 -303 294zM229 1286v33q0 47 26.5 72.5t72.5 25.5h20q101 0 101 -98v-33q0 -98 -101 -98h-20q-46 0 -72.5 25.5t-26.5 72.5zM268 279q0 -77 33 -110.5t111 -33.5h67q95 0 141 41.5t46 132.5v148q-49 6 -111 6h-90q-109 0 -153 -33.5 t-44 -122.5v-28zM563 1286v33q0 47 26.5 72.5t72.5 25.5h20q100 0 100 -98v-33q0 -98 -100 -98h-20q-46 0 -72.5 25.5t-26.5 72.5z" />
<glyph unicode="&#xe5;" horiz-adv-x="974" d="M78 276v33q0 169 98 242q44 35 116.5 50t199.5 15h49q69 0 125 -6v86q0 96 -47 132t-156 36q-103 0 -223 -30q-37 -9 -43 -9q-21 0 -27 29l-8 39q-8 41 -8 53q0 23 28 31q137 45 297 45q199 0 287 -78.5t88 -269.5v-645q0 -15 -7.5 -22t-25.5 -7h-80q-33 0 -39 29l-8 59 h-4q-52 -106 -246 -106h-63q-303 0 -303 294zM268 279q0 -77 33 -110.5t111 -33.5h67q95 0 141 41.5t46 132.5v148q-49 6 -111 6h-90q-109 0 -153 -33.5t-44 -122.5v-28zM309 1298q0 85 55 139t138 54t137.5 -54t54.5 -139t-54.5 -138.5t-137.5 -53.5t-138 53.5t-55 138.5z M424 1298q0 -35 22 -57t56 -22t56 22t22 57t-22 57.5t-56 22.5t-56 -22.5t-22 -57.5z" />
<glyph unicode="&#xe6;" horiz-adv-x="1531" d="M78 276v33q0 169 98 242q44 35 116.5 50t199.5 15h49q69 0 125 -6v86q0 96 -47 132t-156 36q-105 0 -195 -22q-9 -2 -24.5 -6.5t-27 -7.5t-17.5 -3q-23 0 -29 29l-8 39q-8 41 -8 53q0 23 28 31q137 45 297 45q224 0 299 -117q86 117 291 117q188 0 281.5 -96t93.5 -312 v-149q0 -59 -58 -59h-528q2 -77 13 -125t39 -82t75 -48t123 -14q120 0 217 39q24 8 33 8q17 0 24 -22l15 -49q10 -33 10 -43q0 -18 -25 -31q-124 -57 -297 -57q-261 0 -323 141q-37 -72 -109 -106.5t-209 -34.5h-63q-303 0 -303 294zM268 279q0 -77 33 -110.5t111 -33.5h67 q94 0 140.5 41.5t46.5 132.5v131v17q-49 6 -111 6h-90q-109 0 -153 -33.5t-44 -122.5v-28zM856 559h371q15 0 20.5 6t5.5 23q0 157 -37 217.5t-151 60.5q-116 0 -162.5 -68.5t-46.5 -238.5z" />
<glyph unicode="&#xe7;" horiz-adv-x="876" d="M86 471v66q0 158 24.5 242t84.5 141q105 102 307 102q82 0 165.5 -25.5t139.5 -62.5q18 -12 18 -27q0 -10 -20 -49l-29 -53q-12 -21 -24 -21q-10 0 -25 9q-112 69 -219 69q-109 0 -164 -49q-20 -19 -33 -44.5t-19.5 -43.5t-9.5 -61.5t-3 -62v-81.5v-33q0 -120 10 -181.5 t41 -100.5q56 -68 186 -68q102 0 203 37q20 8 31 8q18 0 26 -24l12 -43q11 -37 11 -47q0 -23 -31 -35q-101 -44 -244 -51q-4 -12 -4 -23l-14 -86q30 6 65 6q67 0 110.5 -41t43.5 -123q0 -196 -240 -196q-76 0 -155 22q-21 6 -21 21q0 13 4 37l6 39q3 20 17 20q6 0 22 -4 q58 -16 113 -16t78.5 15t23.5 56q0 30 -15 44t-52 14q-30 0 -70 -7q-20 -4 -22 -4q-12 0 -21 15l-16 26q-6 12 -6 23q0 9 6 39l22 127v2q-134 16 -200 82q-64 61 -88.5 158.5t-24.5 242.5z" />
<glyph unicode="&#xe8;" horiz-adv-x="952" d="M86 467v70q0 249 91.5 367t309.5 118q188 0 282.5 -98t94.5 -312v-147q0 -59 -57 -59h-528q2 -78 13 -125.5t38.5 -81.5t74.5 -48t123 -14q120 0 217 39q24 8 33 8q18 0 25 -22l14 -49q10 -33 10 -43q0 -19 -24 -31q-124 -57 -297 -57q-235 0 -327.5 111t-92.5 374z M238 1333q0 13 18 43l43 72q12 22 29 22q12 0 30 -10l332 -194q25 -14 25 -27q0 -8 -13 -31l-30 -51q-13 -24 -29 -24q-12 0 -35 10l-340 157q-30 14 -30 33zM276 559h379q15 0 21 6t6 23q0 152 -42 215t-157 63q-122 0 -164.5 -70.5t-42.5 -236.5z" />
<glyph unicode="&#xe9;" horiz-adv-x="952" d="M86 467v70q0 249 91.5 367t309.5 118q188 0 282.5 -98t94.5 -312v-147q0 -59 -57 -59h-528q2 -78 13 -125.5t38.5 -81.5t74.5 -48t123 -14q120 0 217 39q24 8 33 8q18 0 25 -22l14 -49q10 -33 10 -43q0 -19 -24 -31q-124 -57 -297 -57q-235 0 -327.5 111t-92.5 374z M276 559h379q15 0 21 6t6 23q0 152 -42 215t-157 63q-122 0 -164.5 -70.5t-42.5 -236.5zM309 1239q0 13 25 27l332 194q17 10 30 10q17 0 29 -22l43 -72q18 -30 18 -43q0 -19 -30 -33l-340 -157q-23 -10 -35 -10q-16 0 -29 24l-30 51q-13 23 -13 31z" />
<glyph unicode="&#xea;" horiz-adv-x="952" d="M86 467v70q0 249 91.5 367t309.5 118q188 0 282.5 -98t94.5 -312v-147q0 -59 -57 -59h-528q2 -78 13 -125.5t38.5 -81.5t74.5 -48t123 -14q120 0 217 39q24 8 33 8q18 0 25 -22l14 -49q10 -33 10 -43q0 -19 -24 -31q-124 -57 -297 -57q-235 0 -327.5 111t-92.5 374z M176 1202q0 10 14 27l201 233q17 19 43 19h94q26 0 43 -19l201 -233q14 -17 14 -27q0 -11 -16 -24l-47 -33q-24 -17 -35 -17q-12 0 -29 17l-174 178h-8l-174 -178q-17 -17 -29 -17q-10 0 -34 17l-47 33q-17 14 -17 24zM276 559h379q15 0 21 6t6 23q0 152 -42 215t-157 63 q-122 0 -164.5 -70.5t-42.5 -236.5z" />
<glyph unicode="&#xeb;" horiz-adv-x="952" d="M86 467v70q0 249 91.5 367t309.5 118q188 0 282.5 -98t94.5 -312v-147q0 -59 -57 -59h-528q2 -78 13 -125.5t38.5 -81.5t74.5 -48t123 -14q120 0 217 39q24 8 33 8q18 0 25 -22l14 -49q10 -33 10 -43q0 -19 -24 -31q-124 -57 -297 -57q-235 0 -327.5 111t-92.5 374z M203 1286v33q0 47 26 72.5t72 25.5h21q100 0 100 -98v-33q0 -98 -100 -98h-21q-46 0 -72 25.5t-26 72.5zM276 559h379q15 0 21 6t6 23q0 152 -42 215t-157 63q-122 0 -164.5 -70.5t-42.5 -236.5zM537 1286v33q0 47 26 72.5t72 25.5h20q101 0 101 -98v-33q0 -98 -101 -98h-20 q-46 0 -72 25.5t-26 72.5z" />
<glyph unicode="&#xec;" horiz-adv-x="479" d="M-78 1331q0 11 19 43l43 72q12 22 28 22q13 0 31 -10l332 -194q24 -14 24 -27q0 -10 -12 -31l-31 -51q-14 -25 -28 -25q-9 0 -35 11l-340 157q-31 15 -31 33zM145 37v930q0 21 9.5 29t31.5 8h107q23 0 32 -7.5t9 -29.5v-930q0 -22 -9 -29.5t-32 -7.5h-107q-22 0 -31.5 8 t-9.5 29z" />
<glyph unicode="&#xed;" horiz-adv-x="479" d="M92 1239q0 13 25 27l332 194q17 10 30 10q17 0 29 -22l43 -72q18 -30 18 -43q0 -19 -30 -33l-340 -157q-23 -10 -35 -10q-16 0 -29 24l-31 51q-12 21 -12 31zM145 37v930q0 21 9.5 29t31.5 8h107q23 0 32 -7.5t9 -29.5v-930q0 -22 -9 -29.5t-32 -7.5h-107q-22 0 -31.5 8 t-9.5 29z" />
<glyph unicode="&#xee;" horiz-adv-x="479" d="M-68 1202q0 8 15 27l200 233q17 19 43 19h95q26 0 43 -19l200 -233q15 -19 15 -27q0 -10 -17 -24l-47 -33q-24 -17 -35 -17t-28 17l-174 178h-9l-174 -178q-17 -17 -28 -17t-35 17l-47 33q-17 14 -17 24zM145 37v930q0 21 9.5 29t31.5 8h107q23 0 32 -7.5t9 -29.5v-930 q0 -22 -9 -29.5t-32 -7.5h-107q-22 0 -31.5 8t-9.5 29z" />
<glyph unicode="&#xef;" horiz-adv-x="479" d="M-39 1286v33q0 47 26 72.5t72 25.5h21q100 0 100 -98v-33q0 -98 -100 -98h-21q-46 0 -72 25.5t-26 72.5zM145 37v930q0 21 9.5 29t31.5 8h107q23 0 32 -7.5t9 -29.5v-930q0 -22 -9 -29.5t-32 -7.5h-107q-22 0 -31.5 8t-9.5 29zM295 1286v33q0 47 26 72.5t72 25.5h21 q100 0 100 -98v-33q0 -98 -100 -98h-21q-46 0 -72 25.5t-26 72.5z" />
<glyph unicode="&#xf0;" horiz-adv-x="1064" d="M86 418v96q0 434 391 434q139 0 223 -63l5 4q-47 168 -203 295l-125 -117q-12 -12 -21 -12q-8 0 -22 14l-39 43q-14 14 -14 23q0 8 12 20l104 96q-51 31 -125 64q-18 9 -18 20q0 9 6 21l43 76q8 16 23 16q8 0 20 -4q107 -47 168 -84l109 100q13 13 20 13q11 0 21 -13 l45 -49q10 -10 10 -18q0 -9 -14 -23l-87 -78q159 -126 239.5 -306.5t80.5 -444.5v-105q-1 -111 -23.5 -192.5t-72 -141.5t-133 -90t-201.5 -30q-220 0 -321 105.5t-101 330.5zM279 434q0 -156 50.5 -226.5t184.5 -70.5q125 0 178 71.5t53 209.5v86q0 287 -229 287 q-128 0 -182.5 -69.5t-54.5 -215.5v-72z" />
<glyph unicode="&#xf1;" horiz-adv-x="1054" d="M131 37v936q0 18 7.5 24.5t25.5 6.5h72q19 0 27 -6.5t11 -24.5l11 -66h4q94 115 291 115q180 0 267 -94t87 -310v-581q0 -22 -9 -29.5t-32 -7.5h-107q-22 0 -31.5 8t-9.5 29v590q0 130 -49 185.5t-166 55.5q-106 0 -158.5 -48t-52.5 -165v-618q0 -22 -8.5 -29.5 t-31.5 -7.5h-107q-22 0 -31.5 8t-9.5 29zM209 1229q0 8 6 20q81 170 217 170q62 0 117 -39l57 -39q47 -30 76 -30q54 0 102 80q8 14 21 14q7 0 24 -10l41 -27q19 -13 19 -25q0 -8 -6 -20q-91 -162 -215 -162q-59 0 -117 37l-55 39q-20 13 -28 17.5t-20.5 9t-25.5 4.5 q-48 0 -98 -82q-10 -19 -23 -19q-9 0 -33 15l-43 24q-16 10 -16 23z" />
<glyph unicode="&#xf2;" horiz-adv-x="999" d="M86 467v70q0 141 23 233t79 148q104 104 312 104q207 0 311 -104q56 -56 79 -148t23 -233v-70q0 -141 -23 -233t-79 -148q-104 -104 -311 -104q-208 0 -312 104q-56 56 -79 148t-23 233zM252 1333q0 13 18 43l43 72q12 22 29 22q14 0 31 -10l332 -194q24 -14 24 -27 q0 -10 -12 -31l-31 -51q-13 -24 -29 -24q-11 0 -34 10l-340 157q-31 15 -31 33zM279 481q0 -184 32 -252q44 -96 189 -96q144 0 188 96q33 70 33 252v1v1v1v1v1v1v1v1v2v1v1v1v2v1v1v2v1v2v1v2v1v2v2v1v10q0 182 -33 252q-44 96 -188 96q-145 0 -189 -96q-32 -68 -32 -252 v-1v-1v-1v-1v-1v-1v-1v-1v-1v-1v-1v-2v-1v-1v-2v-1v-2v-1v-2v-2v-1v-2v-2v-1v-10z" />
<glyph unicode="&#xf3;" horiz-adv-x="999" d="M86 467v70q0 141 23 233t79 148q104 104 312 104q207 0 311 -104q56 -56 79 -148t23 -233v-70q0 -141 -23 -233t-79 -148q-104 -104 -311 -104q-208 0 -312 104q-56 56 -79 148t-23 233zM279 481q0 -184 32 -252q44 -96 189 -96q144 0 188 96q33 70 33 252v1v1v1v1v1v1v1 v1v2v1v1v1v2v1v1v2v1v2v1v2v1v2v2v1v10q0 182 -33 252q-44 96 -188 96q-145 0 -189 -96q-32 -68 -32 -252v-1v-1v-1v-1v-1v-1v-1v-1v-1v-1v-1v-2v-1v-1v-2v-1v-2v-1v-2v-2v-1v-2v-2v-1v-10zM311 1239q0 13 25 27l332 194q18 10 30 10q17 0 29 -22l43 -72q18 -30 18 -43 q0 -19 -30 -33l-340 -157q-23 -10 -35 -10q-16 0 -29 24l-30 51q-13 23 -13 31z" />
<glyph unicode="&#xf4;" horiz-adv-x="999" d="M86 467v70q0 141 23 233t79 148q104 104 312 104q207 0 311 -104q56 -56 79 -148t23 -233v-70q0 -141 -23 -233t-79 -148q-104 -104 -311 -104q-208 0 -312 104q-56 56 -79 148t-23 233zM193 1202q0 10 14 27l201 233q17 19 43 19h94q26 0 43 -19l200 -233q15 -19 15 -27 q0 -10 -17 -24l-47 -33q-24 -17 -34 -17q-12 0 -29 17l-174 178h-8l-175 -178q-17 -17 -28 -17t-35 17l-47 33q-16 13 -16 24zM279 481q0 -184 32 -252q44 -96 189 -96q144 0 188 96q33 70 33 252v1v1v1v1v1v1v1v1v2v1v1v1v2v1v1v2v1v2v1v2v1v2v2v1v10q0 182 -33 252 q-44 96 -188 96q-145 0 -189 -96q-32 -68 -32 -252v-1v-1v-1v-1v-1v-1v-1v-1v-1v-1v-1v-2v-1v-1v-2v-1v-2v-1v-2v-2v-1v-2v-2v-1v-10z" />
<glyph unicode="&#xf5;" horiz-adv-x="999" d="M86 467v70q0 141 23 233t79 148q104 104 312 104q207 0 311 -104q56 -56 79 -148t23 -233v-70q0 -141 -23 -233t-79 -148q-104 -104 -311 -104q-208 0 -312 104q-56 56 -79 148t-23 233zM160 1229q0 8 6 20q81 170 217 170q62 0 117 -39l57 -39q47 -30 76 -30 q54 0 102 80q8 14 21 14q7 0 24 -10l41 -27q19 -13 19 -25q0 -8 -6 -20q-91 -162 -216 -162q-58 0 -116 37l-56 39q-21 14 -28 18t-19.5 8.5t-25.5 4.5q-49 0 -99 -82q-10 -19 -22 -19q-9 0 -33 15l-43 24q-16 10 -16 23zM279 481q0 -184 32 -252q44 -96 189 -96 q144 0 188 96q33 70 33 252v1v1v1v1v1v1v1v1v2v1v1v1v2v1v1v2v1v2v1v2v1v2v2v1v10q0 182 -33 252q-44 96 -188 96q-145 0 -189 -96q-32 -68 -32 -252v-1v-1v-1v-1v-1v-1v-1v-1v-1v-1v-1v-2v-1v-1v-2v-1v-2v-1v-2v-2v-1v-2v-2v-1v-10z" />
<glyph unicode="&#xf6;" horiz-adv-x="999" d="M86 467v70q0 141 23 233t79 148q104 104 312 104q207 0 311 -104q56 -56 79 -148t23 -233v-70q0 -141 -23 -233t-79 -148q-104 -104 -311 -104q-208 0 -312 104q-56 56 -79 148t-23 233zM223 1286v33q0 47 26.5 72.5t72.5 25.5h20q100 0 100 -98v-33q0 -98 -100 -98h-20 q-46 0 -72.5 25.5t-26.5 72.5zM279 481q0 -184 32 -252q44 -96 189 -96q144 0 188 96q33 70 33 252v1v1v1v1v1v1v1v1v2v1v1v1v2v1v1v2v1v2v1v2v1v2v2v1v10q0 182 -33 252q-44 96 -188 96q-145 0 -189 -96q-32 -68 -32 -252v-1v-1v-1v-1v-1v-1v-1v-1v-1v-1v-1v-2v-1v-1v-2v-1 v-2v-1v-2v-2v-1v-2v-2v-1v-10zM557 1286v33q0 47 26 72.5t72 25.5h21q100 0 100 -98v-33q0 -98 -100 -98h-21q-46 0 -72 25.5t-26 72.5z" />
<glyph unicode="&#xf7;" d="M92 489v84q0 25 11 36.5t38 11.5h801q27 0 38 -11.5t11 -36.5v-84q0 -26 -10.5 -36.5t-38.5 -10.5h-801q-28 0 -38.5 10.5t-10.5 36.5zM414 145v43q0 107 116 107h15q114 0 114 -107v-43q0 -106 -114 -106h-15q-116 0 -116 106zM414 874v44q0 106 116 106h15 q114 0 114 -106v-44q0 -106 -114 -106h-15q-116 0 -116 106z" />
<glyph unicode="&#xf8;" horiz-adv-x="999" d="M86 467v70q0 141 23 233t79 148q104 104 312 104q107 0 192 -31l62 113q14 29 30 29q5 0 31 -13l37 -20q20 -10 20 -23q0 -8 -26 -59l-47 -88l12 -12q56 -56 79 -148t23 -233v-70q0 -141 -23 -233t-79 -148q-104 -104 -311 -104q-109 0 -191 28l-55 -102q-14 -29 -31 -29 q-6 0 -30 12l-37 21q-21 10 -21 22q0 7 27 60l41 78q-1 1 -7 5.5t-8 8.5q-56 56 -79 148t-23 233zM279 481q0 -160 22 -227l315 594q-49 22 -116 22q-145 0 -189 -96q-32 -68 -32 -252v-41zM385 154q47 -21 115 -21q144 0 188 96q33 70 33 252v41q0 144 -23 221z" />
<glyph unicode="&#xf9;" horiz-adv-x="1021" d="M121 301v666q0 21 9.5 29t31.5 8h106q23 0 32 -7.5t9 -29.5v-635q0 -113 47 -152q49 -41 156 -41t158 45q24 21 33.5 55t9.5 93v635q0 21 9.5 29t31.5 8h106q24 0 32.5 -8t8.5 -31v-664q0 -174 -104 -250q-47 -37 -114 -53t-171 -16t-170.5 16t-116.5 53 q-104 76 -104 250zM219 1333q0 11 19 43l43 72q12 22 28 22q13 0 31 -10l332 -194q24 -14 24 -27q0 -10 -12 -31l-31 -51q-13 -24 -28 -24q-12 0 -35 10l-340 157q-31 15 -31 33z" />
<glyph unicode="&#xfa;" horiz-adv-x="1021" d="M121 301v666q0 21 9.5 29t31.5 8h106q23 0 32 -7.5t9 -29.5v-635q0 -113 47 -152q49 -41 156 -41t158 45q24 21 33.5 55t9.5 93v635q0 21 9.5 29t31.5 8h106q24 0 32.5 -8t8.5 -31v-664q0 -174 -104 -250q-47 -37 -114 -53t-171 -16t-170.5 16t-116.5 53 q-104 76 -104 250zM336 1239q0 13 24 27l332 194q17 10 31 10q17 0 29 -22l43 -72q18 -30 18 -43q0 -18 -31 -33l-340 -157q-23 -10 -34 -10q-16 0 -29 24l-31 51q-12 21 -12 31z" />
<glyph unicode="&#xfb;" horiz-adv-x="1021" d="M121 301v666q0 21 9.5 29t31.5 8h106q23 0 32 -7.5t9 -29.5v-635q0 -113 47 -152q49 -41 156 -41t158 45q24 21 33.5 55t9.5 93v635q0 21 9.5 29t31.5 8h106q24 0 32.5 -8t8.5 -31v-664q0 -174 -104 -250q-47 -37 -114 -53t-171 -16t-170.5 16t-116.5 53 q-104 76 -104 250zM209 1202q0 10 14 27l201 233q17 19 43 19h94q26 0 43 -19l201 -233q14 -17 14 -27q0 -11 -16 -24l-47 -33q-24 -17 -35 -17q-12 0 -29 17l-174 178h-8l-174 -178q-17 -17 -29 -17q-11 0 -35 17l-47 33q-16 13 -16 24z" />
<glyph unicode="&#xfc;" horiz-adv-x="1021" d="M121 301v666q0 21 9.5 29t31.5 8h106q23 0 32 -7.5t9 -29.5v-635q0 -113 47 -152q49 -41 156 -41t158 45q24 21 33.5 55t9.5 93v635q0 21 9.5 29t31.5 8h106q24 0 32.5 -8t8.5 -31v-664q0 -174 -104 -250q-47 -37 -114 -53t-171 -16t-170.5 16t-116.5 53 q-104 76 -104 250zM238 1286v33q0 47 26 72.5t72 25.5h20q101 0 101 -98v-33q0 -98 -101 -98h-20q-46 0 -72 25.5t-26 72.5zM571 1286v33q0 47 26.5 72.5t72.5 25.5h20q101 0 101 -98v-33q0 -98 -101 -98h-20q-46 0 -72.5 25.5t-26.5 72.5z" />
<glyph unicode="&#xfd;" horiz-adv-x="899" d="M35 979q0 25 33 25h116q36 0 41 -31q84 -425 174 -690q21 -62 33 -83.5t29 -21.5h8q135 401 209 795q6 31 41 31h121q28 0 28 -21q0 -13 -14 -76q-75 -326 -167 -607.5t-255 -655.5q-13 -31 -29 -31t-55 16l-55 23q-33 11 -33 29q0 8 25 59q63 127 118 264 q-92 18 -141 148q-117 303 -213 737q-14 72 -14 90zM299 1239q0 13 25 27l331 194q17 10 31 10q17 0 29 -22l43 -72q18 -30 18 -43q0 -18 -31 -33l-339 -157q-23 -10 -35 -10q-16 0 -29 24l-31 51q-12 21 -12 31z" />
<glyph unicode="&#xfe;" horiz-adv-x="1050" d="M131 -326v1676q0 21 9 28.5t32 7.5h107q24 0 32 -7t8 -29v-412q97 84 269 84q131 0 211.5 -42.5t123 -146t42.5 -278.5v-92q0 -247 -88 -364t-304 -117q-170 0 -251 81h-3v-389q0 -22 -8 -29t-32 -7h-107q-23 0 -32 7.5t-9 28.5zM319 358q0 -117 56.5 -169t171.5 -52 q130 0 177.5 72.5t47.5 259.5v68q0 186 -47 256.5t-180 70.5q-125 0 -175.5 -53.5t-50.5 -173.5v-279z" />
<glyph unicode="&#xff;" horiz-adv-x="899" d="M35 979q0 25 33 25h116q36 0 41 -31q84 -425 174 -690q21 -62 33 -83.5t29 -21.5h8q135 401 209 795q6 31 41 31h121q28 0 28 -21q0 -13 -14 -76q-75 -326 -167 -607.5t-255 -655.5q-13 -31 -29 -31t-55 16l-55 23q-33 11 -33 29q0 8 25 59q63 127 118 264 q-92 18 -141 148q-117 303 -213 737q-14 72 -14 90zM182 1286v33q0 47 26.5 72.5t72.5 25.5h20q100 0 100 -98v-33q0 -98 -100 -98h-20q-46 0 -72.5 25.5t-26.5 72.5zM516 1286v33q0 47 26 72.5t72 25.5h21q100 0 100 -98v-33q0 -98 -100 -98h-21q-46 0 -72 25.5t-26 72.5z " />
<glyph unicode="&#x152;" horiz-adv-x="1742" d="M104 614v95q0 162 25 276.5t83 196.5t155 121.5t239 39.5q173 0 312 -94q26 42 80 59t141 17h477q25 0 33 -8.5t8 -32.5v-82q0 -23 -8 -32t-33 -9h-455q-44 0 -66.5 -18t-25.5 -58q-10 -133 -10 -321h475q25 0 33 -8t8 -31v-84q0 -22 -8 -30.5t-33 -8.5h-475 q0 -255 14 -369q4 -39 24 -55t62 -16h455q27 0 35 -8t8 -31v-84q0 -23 -8 -31t-35 -8h-475q-91 0 -145 18.5t-83 61.5q-53 -44 -135 -71t-176 -27q-139 0 -235.5 39.5t-153.5 122t-82 196.5t-25 274zM311 637q0 -65 2 -111t9 -101t19.5 -92.5t35 -75t54.5 -60t78 -36.5 t105 -14q82 0 152 24.5t113 68.5q-17 185 -17 368v121q0 231 10 356q-91 91 -266 91q-56 0 -100.5 -13.5t-75 -36t-53 -59t-35 -74.5t-20 -92t-9.5 -102t-2 -113v-49z" />
<glyph unicode="&#x153;" horiz-adv-x="1589" d="M86 467v70q0 141 23 233t79 148q104 104 312 104q216 0 317 -119q98 119 309 119q188 0 281.5 -96t93.5 -312v-149q0 -59 -57 -59h-529q2 -77 13 -125t39 -82t75 -48t123 -14q120 0 217 39q24 8 33 8q18 0 25 -22l14 -49q10 -33 10 -43q0 -19 -24 -31q-124 -57 -297 -57 q-241 0 -334 124q-41 -58 -124 -91t-185 -33q-208 0 -312 104q-56 56 -79 148t-23 233zM279 481q0 -184 32 -252q44 -96 189 -96q144 0 188 96q33 70 33 252v41q0 182 -33 252q-44 96 -188 96q-145 0 -189 -96q-32 -68 -32 -252v-41zM913 559h371q15 0 21 6t6 23 q0 156 -37.5 217t-151.5 61q-116 0 -162.5 -68.5t-46.5 -238.5z" />
<glyph unicode="&#x178;" horiz-adv-x="978" d="M31 1300q0 15 9.5 20t33.5 5h98q44 0 53 -35q87 -336 258 -686h13q164 336 258 686q9 35 53 35h98q24 0 33.5 -5t9.5 -20q0 -14 -14 -61q-135 -435 -344 -809v-389q0 -25 -9.5 -33t-35.5 -8h-111q-26 0 -35.5 8t-9.5 33v389q-206 362 -344 809q-14 47 -14 61zM213 1579 v33q0 47 26 72.5t72 25.5h21q100 0 100 -98v-33q0 -98 -100 -98h-21q-46 0 -72 25.5t-26 72.5zM547 1579v33q0 47 26 72.5t72 25.5h21q100 0 100 -98v-33q0 -98 -100 -98h-21q-46 0 -72 25.5t-26 72.5z" />
<glyph unicode="&#x2c6;" horiz-adv-x="757" d="M74 1202q0 10 14 27l201 233q17 19 43 19h94q26 0 43 -19l201 -233q14 -17 14 -27q0 -11 -16 -24l-47 -33q-24 -17 -35 -17q-12 0 -29 17l-174 178h-8l-174 -178q-17 -17 -29 -17q-11 0 -35 17l-47 33q-16 13 -16 24z" />
<glyph unicode="&#x2dc;" horiz-adv-x="790" d="M55 1229q0 8 6 20q40 83 96 126.5t122 43.5q61 0 116 -39l58 -39q47 -30 75 -30q55 0 103 80q8 14 20 14q8 0 25 -10l41 -27q18 -12 18 -25q0 -8 -6 -20q-91 -162 -215 -162q-59 0 -117 37l-55 39q-20 13 -28 17.5t-20.5 9t-25.5 4.5q-48 0 -98 -82q-10 -19 -23 -19 q-8 0 -32 15l-43 24q-17 10 -17 23z" />
<glyph unicode="&#x2000;" horiz-adv-x="899" />
<glyph unicode="&#x2001;" horiz-adv-x="1798" />
<glyph unicode="&#x2002;" horiz-adv-x="899" />
<glyph unicode="&#x2003;" horiz-adv-x="1798" />
<glyph unicode="&#x2004;" horiz-adv-x="599" />
<glyph unicode="&#x2005;" horiz-adv-x="449" />
<glyph unicode="&#x2006;" horiz-adv-x="299" />
<glyph unicode="&#x2007;" horiz-adv-x="299" />
<glyph unicode="&#x2008;" horiz-adv-x="224" />
<glyph unicode="&#x2009;" horiz-adv-x="359" />
<glyph unicode="&#x200a;" horiz-adv-x="99" />
<glyph unicode="&#x2010;" horiz-adv-x="645" d="M72 483v92q0 26 10.5 36t36.5 10h407q26 0 36.5 -10t10.5 -36v-92q0 -23 -10.5 -32t-36.5 -9h-407q-26 0 -36.5 9t-10.5 32z" />
<glyph unicode="&#x2011;" horiz-adv-x="645" d="M72 483v92q0 26 10.5 36t36.5 10h407q26 0 36.5 -10t10.5 -36v-92q0 -23 -10.5 -32t-36.5 -9h-407q-26 0 -36.5 9t-10.5 32z" />
<glyph unicode="&#x2012;" horiz-adv-x="645" d="M72 483v92q0 26 10.5 36t36.5 10h407q26 0 36.5 -10t10.5 -36v-92q0 -23 -10.5 -32t-36.5 -9h-407q-26 0 -36.5 9t-10.5 32z" />
<glyph unicode="&#x2013;" horiz-adv-x="1024" d="M0 483v92q0 26 10.5 36t36.5 10h930q26 0 36.5 -10t10.5 -36v-92q0 -23 -10.5 -32t-36.5 -9h-930q-26 0 -36.5 9t-10.5 32z" />
<glyph unicode="&#x2014;" horiz-adv-x="2048" d="M0 483v92q0 26 10.5 36t36.5 10h1954q26 0 36.5 -10t10.5 -36v-92q0 -23 -10.5 -32t-36.5 -9h-1954q-26 0 -36.5 9t-10.5 32z" />
<glyph unicode="&#x2018;" horiz-adv-x="452" d="M92 1036v19q0 87 41 190q51 122 115 189q13 16 24 16q15 0 33 -12l43 -27q19 -13 19 -25q0 -7 -11 -22q-30 -37 -55.5 -82t-32.5 -74q-8 -31 13 -43l30 -16q23 -12 32 -32.5t9 -59.5v-49q0 -99 -110 -99h-31q-62 0 -90.5 30t-28.5 97z" />
<glyph unicode="&#x2019;" horiz-adv-x="452" d="M86 973q0 9 10 22q30 37 55.5 82t32.5 74q8 31 -12 43l-31 16q-23 12 -32 33t-9 60v49q0 98 111 98h31q62 0 90 -30t28 -97v-18q0 -88 -41 -191q-51 -122 -114 -188q-14 -17 -25 -17q-14 0 -33 13l-43 26q-18 12 -18 25z" />
<glyph unicode="&#x201a;" horiz-adv-x="452" d="M86 -248q0 10 10 23q71 89 88 155q8 31 -12 43l-31 17q-23 12 -32 32.5t-9 59.5v49q0 98 111 98h31q62 0 90 -30t28 -97v-18q0 -87 -41 -190q-52 -124 -114 -189q-13 -16 -25 -16q-15 0 -33 12l-43 27q-18 12 -18 24z" />
<glyph unicode="&#x201c;" horiz-adv-x="833" d="M92 1036v19q0 87 41 190q51 122 115 189q13 16 24 16q15 0 33 -12l43 -27q19 -13 19 -25q0 -7 -11 -22q-30 -37 -55.5 -82t-32.5 -74q-8 -31 13 -43l30 -16q23 -12 32 -32.5t9 -59.5v-49q0 -99 -110 -99h-31q-62 0 -90.5 30t-28.5 97zM473 1036v19q0 87 41 190 q51 122 115 189q13 16 24 16q15 0 33 -12l43 -27q19 -13 19 -25q0 -7 -11 -22q-30 -37 -55.5 -82t-32.5 -74q-8 -31 13 -43l30 -16q23 -12 32 -32.5t9 -59.5v-49q0 -99 -110 -99h-31q-62 0 -90.5 30t-28.5 97z" />
<glyph unicode="&#x201d;" horiz-adv-x="833" d="M86 973q0 9 10 22q30 37 55.5 82t32.5 74q8 31 -12 43l-31 16q-23 12 -32 33t-9 60v49q0 98 111 98h31q62 0 90 -30t28 -97v-18q0 -88 -41 -191q-51 -122 -114 -188q-14 -17 -25 -17q-14 0 -33 13l-43 26q-18 12 -18 25zM467 973q0 9 10 22q30 37 55.5 82t32.5 74 q8 31 -12 43l-31 16q-23 12 -32 33t-9 60v49q0 98 111 98h31q62 0 90 -30t28 -97v-18q0 -88 -41 -191q-51 -122 -114 -188q-14 -17 -25 -17q-13 0 -33 13l-43 26q-18 12 -18 25z" />
<glyph unicode="&#x201e;" horiz-adv-x="833" d="M86 -248q0 10 10 23q71 89 88 155q8 31 -12 43l-31 17q-23 12 -32 32.5t-9 59.5v49q0 98 111 98h31q62 0 90 -30t28 -97v-18q0 -87 -41 -190q-52 -124 -114 -189q-13 -16 -25 -16q-15 0 -33 12l-43 27q-18 12 -18 24zM467 -248q0 10 10 23q71 89 88 155q8 31 -12 43 l-31 17q-23 12 -32 32.5t-9 59.5v49q0 98 111 98h31q62 0 90 -30t28 -97v-18q0 -87 -41 -190q-52 -124 -114 -189q-13 -16 -25 -16q-15 0 -33 12l-43 27q-18 12 -18 24z" />
<glyph unicode="&#x2022;" horiz-adv-x="694" d="M102 535q0 103 70.5 174t173.5 71t174.5 -71t71.5 -174t-71.5 -174.5t-174.5 -71.5t-173.5 71.5t-70.5 174.5z" />
<glyph unicode="&#x2026;" horiz-adv-x="1271" d="M92 90v33q0 53 30 80.5t79 27.5h22q109 0 109 -108v-33q0 -108 -109 -108h-22q-49 0 -79 27.5t-30 80.5zM516 90v33q0 53 30 80.5t79 27.5h22q109 0 109 -108v-33q0 -108 -109 -108h-22q-49 0 -79 27.5t-30 80.5zM940 90v33q0 53 30 80.5t79 27.5h22q109 0 109 -108v-33 q0 -108 -109 -108h-22q-49 0 -79 27.5t-30 80.5z" />
<glyph unicode="&#x202f;" horiz-adv-x="359" />
<glyph unicode="&#x2039;" horiz-adv-x="622" d="M76 467v16q0 42 28 64l297 246q33 26 52 26q15 0 34 -16l33 -31q31 -29 31 -49q0 -17 -23 -37l-225 -211l225 -209q23 -20 23 -37q0 -20 -31 -49l-33 -30q-20 -17 -34 -17q-18 0 -52 27l-297 243q-28 22 -28 64z" />
<glyph unicode="&#x203a;" horiz-adv-x="622" d="M72 229q0 18 22 37l225 209l-225 211q-22 19 -22 37q0 21 30 49l33 31q19 16 35 16q18 0 51 -26l297 -246q29 -23 29 -64v-16q0 -41 -29 -64l-297 -243q-34 -27 -51 -27q-15 0 -35 17l-33 30q-30 28 -30 49z" />
<glyph unicode="&#x205f;" horiz-adv-x="449" />
<glyph unicode="&#x20ac;" d="M47 459v67q0 24 7 31.5t30 7.5h131v142h-131q-23 0 -30 7.5t-7 30.5v68q0 24 7 31.5t30 7.5h137q19 255 133.5 373t339.5 118q191 0 346 -86q27 -17 27 -34q0 -18 -27 -64l-24 -43q-11 -20 -27 -20q-17 0 -39 14q-125 70 -256 70q-130 0 -192 -71t-74 -257h408 q23 0 29.5 -7.5t6.5 -31.5v-68q0 -24 -6.5 -31t-29.5 -7h-414v-142h414q23 0 29.5 -7.5t6.5 -31.5v-67q0 -24 -6.5 -31.5t-29.5 -7.5h-404q18 -144 83 -209.5t214 -65.5q131 0 236 37q33 11 39 11q18 0 26 -29l10 -39q13 -57 13 -66q0 -13 -27 -24q-59 -23 -143.5 -38 t-161.5 -15q-248 0 -360.5 102t-137.5 336h-139q-23 0 -30 7.5t-7 31.5z" />
<glyph unicode="&#x2122;" horiz-adv-x="1480" d="M66 1235v72q0 15 5.5 20.5t22.5 5.5h443q17 0 22.5 -5.5t5.5 -20.5v-72q0 -15 -5.5 -21t-22.5 -6h-148v-473q0 -18 -6.5 -24t-26.5 -6h-86q-20 0 -26 6t-6 24v473h-144q-17 0 -22.5 6t-5.5 21zM612 733q8 257 31 549q3 30 14.5 40.5t38.5 10.5h133q32 0 44 -9.5t20 -37.5 q62 -244 98 -368h8q85 314 99 368q8 28 19.5 37.5t43.5 9.5h133q27 0 39 -10.5t15 -40.5q22 -272 30 -549q0 -28 -35 -28h-81q-35 0 -35 28q-5 229 -17 457h-6q-88 -319 -108 -383q-6 -23 -17.5 -30t-40.5 -7h-86q-28 0 -39.5 7t-17.5 30q-27 85 -109 383h-6 q-10 -194 -16 -457q0 -28 -35 -28h-82q-35 0 -35 28z" />
<glyph unicode="&#xe000;" horiz-adv-x="1003" d="M0 0v1004h1004v-1004h-1004z" />
</font>
</defs>
</svg>
